<svg xmlns="http://www.w3.org/2000/svg" width="361.759" height="250.03" viewBox="0 0 361.759 250.03"><defs><style>.a{fill:#fff;}.b{fill:#2f2e41;}.c{fill:#ffb9b9;}.d{opacity:0.1;}.e{fill:#00ffa2;}.f,.h{opacity:0.2;}.g{fill:#c5d0e3;}.h,.j{fill:none;stroke-miterlimit:10;strokeWidth:2px;}.h{stroke:#000;}.i{fill:#044566;}.j{stroke:#3f3d56;}.k{fill:#3f3d56;}.l{fill:#9f616a;}.m{fill:#d0cde1;}.n{fill:#57b894;}</style></defs><g transform="translate(0 -19)"><circle class="a" cx="122.964" cy="122.964" r="122.964" transform="translate(44.795 19)"/><ellipse class="a" cx="48.717" cy="7.795" rx="48.717" ry="7.795" transform="translate(0 253.44)"/><ellipse class="a" cx="75.38" cy="12.061" rx="75.38" ry="12.061" transform="translate(210.999 236.985)"/><path class="b" d="M856.979,435.945s.642,2.139-2.995,4.064-4.706,9.2-.428,11.338,5.562,4.92,3.423,6.845-5.99,7.059-.856,8.343,5.776,3.851,4.279,4.92,3.423-1.925,3.423-1.925.856,5.134,5.348,3.851,17.114-25.67,10.7-29.093S856.979,435.945,856.979,435.945Z" transform="translate(-587.348 -302.828)"/><path class="c" d="M876.217,492.433s2.219,7.767-1.664,8.321a15.159,15.159,0,0,0-6.657,2.774l7.212,9.431h13.314l8.321-8.321s-11.1-8.321-8.876-13.314S876.217,492.433,876.217,492.433Z" transform="translate(-598.833 -338.661)"/><path class="d" d="M876.217,492.433s2.219,7.767-1.664,8.321a15.159,15.159,0,0,0-6.657,2.774l7.212,9.431h13.314l8.321-8.321s-11.1-8.321-8.876-13.314S876.217,492.433,876.217,492.433Z" transform="translate(-598.833 -338.661)"/><path class="c" d="M852.787,724.092l12.759,4.438,8.876.555-.555-7.766L855.56,715.9Z" transform="translate(-572.074 -473.793)"/><path class="e" d="M953,771.864s0,7.766,1.109,7.766,16.088-1.664,20.526,0,11.1-4.438,7.767-7.766-8.758-8.321-12.146-7.212S953,768.536,953,768.536Z" transform="translate(-655.926 -523.229)"/><path class="e" d="M821.5,764.974s-6.657,13.314-2.219,14.424,9.431-.555,9.985-1.11,8.321-2.774,9.431-1.664,1.109-4.438,1.109-4.438Z" transform="translate(-565.199 -523.55)"/><path class="b" d="M834.516,709.359s-10.54,14.423-2.774,18.307,44.935,3.883,47.708,0,3.883-16.088,0-17.2S834.516,709.359,834.516,709.359Z" transform="translate(-572.665 -486.242)"/><path class="f" d="M834.516,709.359s-10.54,14.423-2.774,18.307,44.935,3.883,47.708,0,3.883-16.088,0-17.2S834.516,709.359,834.516,709.359Z" transform="translate(-572.665 -486.242)"/><circle class="c" cx="12.759" cy="12.759" r="12.759" transform="translate(269.063 132.138)"/><path class="g" d="M845.987,527.88l11.095-2.219s2.774,8.876,11.65,7.212,11.095-7.212,11.095-7.212,6.657,2.774,7.212,2.774,7.767,2.774,7.767,4.438-8.321,18.307-8.321,18.307l1.11,29.957-41.052-1.109,2.774-29.4Z" transform="translate(-584.136 -363.013)"/><path class="c" d="M823.633,576.22s-3.328,29.4-1.109,31.621,11.095,8.321,11.095,8.321v-6.657l-4.438-8.321,4.438-19.416Z" transform="translate(-567.884 -396.929)"/><path class="c" d="M978.7,573.692s-1.942,30.234-1.942,31.343-4.993,4.993-6.657,4.993-2.774-2.774-2.774-2.774l3.883-4.438-2.774-22.745Z" transform="translate(-665.535 -395.233)"/><path class="b" d="M933.3,690.056s24.964-13.869,25.518,0-12.759,19.416-12.759,19.416-34.395,10.314-35.781,6.544-4.161-9.872-1.942-10.427,4.993-1.664,6.1-.555,14.978-8.321,14.978-8.321Z" transform="translate(-625.403 -469.158)"/><path class="h" d="M989.6,697.562s-4.993,2.219-6.657,3.883-8.876,4.438-8.876,4.438" transform="translate(-670.057 -478.328)"/><path class="g" d="M830.8,533.512l-3.329-1.11s-12.2,12.759-8.321,16.088,6.1,4.438,7.212,5.547,6.657,1.664,6.657,1.664Z" transform="translate(-565.623 -367.535)"/><path class="g" d="M963.3,544.2l4.993,1.109s3.883,8.321,4.993,9.431-1.664.555-3.328,2.774-3.328,6.1-6.657,6.1-7.766-5.548-7.766-5.548Z" transform="translate(-657.621 -375.449)"/><path class="b" d="M789.863,701.531s-21.08-14.978-28.292-3.883,31.066,26.073,36.613,28.292,10.54,4.438,10.54,4.438,4.993-12.2,4.993-14.424-3.883-2.219-4.993-2.219-6.1-1.109-7.212-2.774S789.863,701.531,789.863,701.531Z" transform="translate(-526.903 -475.64)"/><path class="h" d="M813.966,705.988s5.547,4.438,10.54,5.548,6.657,3.883,6.657,3.883" transform="translate(-562.655 -483.981)"/><path class="i" d="M837.731,636.516,838.174,660a2.941,2.941,0,0,0,2.973,2.885l43.711-.491a2.94,2.94,0,0,0,2.9-2.771l1.327-23a2.94,2.94,0,0,0-2.935-3.11H840.671a2.94,2.94,0,0,0-2.94,3Z" transform="translate(-578.597 -435.368)"/><path class="b" d="M894.724,423.04s.711,2.37-3.318,4.5-5.214,10.19-.474,12.56,6.161,5.451,3.792,7.583-6.635,7.82-.948,9.242,6.4,4.266,4.74,5.451,3.792-2.133,3.792-2.133.948,5.688,5.924,4.266,9.942-27.268,4.395-33.926C907.468,424.4,894.724,423.04,894.724,423.04Z" transform="translate(-612.22 -294.171)"/><path class="b" d="M904.13,412.331c0-3.472,10.388-.977,14.842,3.87,3.084,3.357,7.768,8.407,3.843,11.967s6.728,8.227,9.585,9.642,8.5,5.742,3.4,8.644-5.011,5.833-3.095,6.527-4.226-1.031-4.226-1.031.621,5.733-4.555,5.705-20.024-28.471-16.477-36.378C910.749,413.925,904.13,412.331,904.13,412.331Z" transform="translate(-623.14 -285.901)"/><path class="b" d="M879.816,413.221c-13.89-.836-15.284,9.619-15.284,9.619.1,6.051,9.7,3.1,12.374,4,3.22-2.316,9.426-6.7,13.865-9.826A20.992,20.992,0,0,0,879.816,413.221Z" transform="translate(-596.576 -287.552)"/><path class="j" d="M714.617,410.675s-12.46-58.395-90.447-100.755" transform="translate(-435.334 -218.287)"/><path class="k" d="M575.6,254.891l.156.64-3.154.765.994,3.091-.627.2-1.21-3.764Z" transform="translate(-383.553 -164.532)"/><path class="e" d="M78.946,763.024c0,7.4-4.4,9.979-9.82,9.979q-.188,0-.376,0c-.251-.005-.5-.017-.746-.034-4.895-.346-8.7-3.062-8.7-9.94,0-7.118,9.1-16.1,9.78-16.765h0l.04-.038S78.946,755.628,78.946,763.024Z" transform="translate(-56.407 -510.969)"/><path class="k" d="M80.008,771.871l3.592-5.019-3.6,5.57-.01.576c-.251-.005-.5-.017-.746-.034l.387-7.4,0-.057.007-.011.036-.7-3.61-5.584,3.621,5.06.008.148.293-5.591-3.09-5.77,3.128,4.788.3-11.591v0l-.051,9.14,3.077-3.624-3.089,4.411-.081,5.006,2.873-4.8-2.885,5.541-.045,2.783,4.17-6.686-4.186,7.657Z" transform="translate(-67.647 -510.969)"/><path class="b" d="M222.41,788.27l2.1-1.561s1.391,7.767-.161,8.931-7.37,3.1-7.37,5.431-13.189,5.431-13.577,1.94a7.693,7.693,0,0,1,1.164-5.431s6.207-6.207,6.982-7.37,2.715-3.491,2.715-3.491Z" transform="translate(-153.029 -538.131)"/><path class="b" d="M167,489.318s.058.341.159.966c.093.555.221,1.338.376,2.3,1.629,9.942,6.381,39.21,6.059,40.176-.388,1.164-3.1,5.431,0,6.595a2.406,2.406,0,0,1,.966,1.051,22.55,22.55,0,0,1,1.641,3.871,170.1,170.1,0,0,1,4.973,19.912c.5,2.615.842,4.717.943,5.819a3.162,3.162,0,0,1,.012.768c-.388,1.552,2.328,6.983,3.491,8.534s3.1,3.1,2.715,4.655,9.7,5.819,10.862,3.1,1.164-4.267,1.552-5.043.776-6.207-1.164-6.982-.776-14.353-2.715-17.068c-.648-.9-1.637-3.964-2.673-7.646-.407-1.443-.818-2.979-1.222-4.519-1.637-6.311-3.088-12.662-3.088-12.662l.388-45.386-21.335-2.715-.547,1.206-1.09,2.393Z" transform="translate(-128.649 -335.77)"/><path class="b" d="M133.854,721.467s-3.1-3.1-4.655,0-3.1,15.129-5.819,17.844-6.207,16.292-2.327,17.068,8.146-1.164,8.534-3.491,8.534-14.353,8.534-15.517-5.431-5.431-5.431-5.431Z" transform="translate(-96.67 -493.44)"/><path class="b" d="M205.425,431.027s-5.043,45.386-6.207,49.653-7.37,20.56-9.31,23.275-14.353,24.827-15.9,25.99-4.655,4.267-4.655,4.267-5.819,5.819-6.595,6.982-7.37-2.327-7.758-4.655.388-6.207.776-7.758-.776-3.879.388-5.043,6.982-6.982,6.982-9.7,10.086-18.62,13.965-22.111,3.1-9.31,3.1-9.31V458.957l-21.335-6.595s1.164-18.62,3.879-18.62S201.158,427.536,205.425,431.027Z" transform="translate(-120.528 -298.814)"/><circle class="l" cx="12.801" cy="12.801" r="12.801" transform="translate(40.675 41.828)"/><path class="l" d="M191.135,214.685s1.552,5.819,3.491,7.37-5.043,8.146-5.043,8.146l-13.189.776-2.327-7.37s4.267-8.534,3.1-13.965S191.135,214.685,191.135,214.685Z" transform="translate(-133.392 -149.97)"/><path class="e" d="M191.823,248.18s-3.491.388-4.267,1.552-6.207,4.655-10.474,3.879-6.982-1.94-7.758-1.552S167,260.593,167,260.593l4.267,12.413-.776,34.137-1.164,9.31s-2.327-3.1,6.982-1.164,21.335-1.552,25.214-1.94,10.474-1.552,10.862-3.879-1.164-10.862-1.164-10.862l-6.207-25.99-3.879-13.965Z" transform="translate(-128.649 -176.87)"/><path class="m" d="M231.271,241.164s3.281-1.74,4.445-.189,15.9,3.879,15.9,5.043,3.1,32.585,2.327,35.3,1.552,5.819,1.552,5.819l2.715,11.637s7.37,22.111,4.267,22.887-5.819,0-6.982,0-.776-14.741-3.879-18.62-7.37-13.577-8.146-15.517S233,258.819,233.389,255.716,231.271,241.164,231.271,241.164Z" transform="translate(-171.766 -171.605)"/><path class="m" d="M149.113,248.18s-3.1,0-3.491.776a42.457,42.457,0,0,1-5.819,6.982c-1.552,1.164-6.982,6.207-6.982,7.37s11.25,9.7,11.25,9.7,4.655,22.887,2.327,30.645-5.819,26.378-4.267,27.542,5.043,1.552,5.043,0,2.328-18.232,4.267-21.723,7.758-25.6,5.431-31.809S149.113,248.18,149.113,248.18Z" transform="translate(-105.723 -176.87)"/><path class="l" d="M281.744,364.847s.388,12.025-3.879,18.232a73.72,73.72,0,0,0-6.983,13.189s-6.982-1.94-8.146-4.267-8.534-.388-8.534-1.164,8.922-4.655,9.7-5.431,3.491-.776,5.043-2.328,1.94-5.043,1.94-5.043l1.552-10.086Z" transform="translate(-187.149 -255.134)"/><path class="b" d="M187.4,149.131a7.377,7.377,0,0,0,2.871-.657,3.844,3.844,0,0,0,.983-5.692,7.356,7.356,0,0,0-1.364-1.1l-2.949-2.007a14.422,14.422,0,0,0-4.16-2.208,12.987,12.987,0,0,0-4.253-.251,28.737,28.737,0,0,0-8.147,1.481,13.634,13.634,0,0,0-6.6,4.83c-2.5,3.612-2.531,8.484-1.156,12.655s3.987,7.8,6.561,11.36l1.335-6.516a2.4,2.4,0,0,1,.755-1.56c1.2-.854,2.667.9,4.14.888a2.479,2.479,0,0,0,2.1-1.661,9.466,9.466,0,0,0,.465-2.788c.176-2,.873-4.774,2.764-5.875C182.5,149.008,185.419,149.311,187.4,149.131Z" transform="translate(-125.107 -102.395)"/><path class="d" d="M232.606,498.722s-1.31,37.9-2.086,39.06,0-39.179,0-39.179Z" transform="translate(-171.031 -344.861)"/><path class="m" d="M283.664,257.607h3.1s13.189,17.844,11.637,19.008,0,4.267,0,4.267l3.1,5.819s3.879,3.491,2.715,4.267-2.715,3.879-2.715,3.879-7.758-1.164-10.086,3.491l-5.031-6.352Z" transform="translate(-206.913 -183.194)"/><rect class="b" width="11.521" height="21.47" transform="matrix(0.924, -0.382, 0.382, 0.924, 67.198, 84.55)"/><ellipse class="e" cx="2.304" cy="2.117" rx="2.304" ry="2.117" transform="matrix(0.924, -0.382, 0.382, 0.924, 72.854, 88.758)"/><path class="l" d="M191.112,317.9s-27.93,23.275-32.585,15.9,5.043-13.577,5.043-13.577,8.534.388,18.232-5.819l9.7-4.267s8.853-12.64,11.87-7.827S198.221,315.5,191.112,317.9Z" transform="translate(-122.12 -212.449)"/><path class="m" d="M133.926,289.426l-4.267,1.552v11.637l-1.552,2.328s.388,4.655,1.552,5.819,3.491.776,2.715,3.491a14.7,14.7,0,0,0-.388,5.431s6.982,8.922,7.37,7.758,5.819-15.517,6.595-15.517-7.758-22.5-7.758-22.5Z" transform="translate(-102.561 -204.539)"/><path class="b" d="M283.945,454.21s4.011-3.879,2.006-4.073S276.963,446.064,275.8,448,283.945,454.21,283.945,454.21Z" transform="translate(-201.569 -310.554)"/><ellipse class="n" cx="5.875" cy="2.938" rx="5.875" ry="2.938" transform="translate(152.761 64.015)"/><path class="j" d="M520.355,226.938a51.9,51.9,0,0,0-37.855,0V211.467a65.517,65.517,0,0,1,37.855,0Z" transform="translate(-340.298 -150.368)"/><path class="j" d="M525.821,227.576a37.46,37.46,0,0,0-27.321,0V216.41a47.286,47.286,0,0,1,27.321,0Z" transform="translate(-351.031 -154.205)"/><ellipse class="j" cx="5.456" cy="2.938" rx="5.456" ry="2.938" transform="translate(155.279 62.336)"/><ellipse class="n" cx="5.596" cy="2.963" rx="5.596" ry="2.963" transform="matrix(0.98, -0.2, 0.2, 0.98, 156.107, 83.525)"/><path class="j" d="M530.995,275.648a51.9,51.9,0,0,0-37.09,7.57l-3.094-15.159a65.518,65.518,0,0,1,37.09-7.57Z" transform="translate(-345.873 -184.942)"/><path class="j" d="M536.161,278.076a37.46,37.46,0,0,0-26.769,5.464l-2.233-10.94a47.285,47.285,0,0,1,26.769-5.464Z" transform="translate(-356.84 -189.452)"/><ellipse class="j" cx="5.596" cy="2.963" rx="5.596" ry="2.963" transform="matrix(0.98, -0.2, 0.2, 0.98, 157.779, 81.84)"/><ellipse class="n" cx="2.963" cy="5.596" rx="2.963" ry="5.596" transform="translate(155.235 106.288) rotate(-86.019)"/><path class="j" d="M525.476,340.953a51.9,51.9,0,0,0-37.763-2.628l1.074-15.434a65.518,65.518,0,0,1,37.763,2.628Z" transform="translate(-343.795 -225.894)"/><path class="j" d="M531.6,341.313a37.459,37.459,0,0,0-27.255-1.9l.775-11.139a47.287,47.287,0,0,1,27.255,1.9Z" transform="translate(-354.955 -229.812)"/><ellipse class="j" cx="2.963" cy="5.596" rx="2.963" ry="5.596" transform="translate(157.296 105.112) rotate(-86.019)"/><path class="j" d="M380.909,264.2s-24.193-3.31-41.47,6.815" transform="translate(-244.329 -187.268)"/><path class="k" d="M288.272,224.459l.628.2-.982,3.094,3.158.753-.154.641-3.846-.919Z" transform="translate(-192.58 -144.117)"/></g></svg>