<svg xmlns="http://www.w3.org/2000/svg" width="84" height="42" viewBox="0 0 84 42"><defs><style>.a,.b{fill:#044566;}.b{font-size:10px;font-family:NotoSans-Medium, Noto Sans;font-weight:500;letter-spacing:0.03em;}.c{fill:#00bc48;}.d,.g{fill:#fff;}.e{fill:none;stroke-width:1.5px;}.e,.g{stroke:#fff;}.f{fill:#1e00ff;}.g{stroke-width:2px;}</style></defs><path class="a" d="M0,8.312V7.687a.937.937,0,0,1,.938-.937H15V4.874a.938.938,0,0,1,1.6-.663l3.125,3.125a.938.938,0,0,1,0,1.326L16.6,11.787a.938.938,0,0,1-1.6-.663V9.249H.937A.937.937,0,0,1,0,8.312Z" transform="translate(31.5 3.243)"/><g transform="translate(60)"><text class="b" transform="translate(12 39)"><tspan x="-11.695" y="0">NGN</tspan></text><circle class="c" cx="11.5" cy="11.5" r="11.5"/><g transform="translate(3.5 5.747)"><path class="d" d="M11.568,0H8.5L3.52-8.64H3.456q.032.816.072,1.632T3.6-5.376V0H1.44V-11.424H4.5l4.96,8.56H9.5L9.44-4.432q-.032-.784-.048-1.584v-5.408h2.176Z" transform="translate(0.801 11.424)"/><g transform="translate(0 4)"><line class="e" x1="14.809"/><line class="e" x1="14.809" transform="translate(0 3)"/></g></g></g><text class="b" transform="translate(12 39)"><tspan x="-10.405" y="0">USD</tspan></text><circle class="f" cx="11.5" cy="11.5" r="11.5"/><g transform="translate(7.5 3.747)"><path class="d" d="M8.176-3.168A2.981,2.981,0,0,1,7.08-.744a4.767,4.767,0,0,1-3.112.9A7.337,7.337,0,0,1,.736-.528V-2.784q.816.352,1.688.648a5.374,5.374,0,0,0,1.736.3,1.872,1.872,0,0,0,1.272-.344,1.13,1.13,0,0,0,.376-.872,1.016,1.016,0,0,0-.3-.736A3.189,3.189,0,0,0,4.72-4.36q-.5-.264-1.136-.568-.4-.192-.864-.456a4.823,4.823,0,0,1-.888-.656,3.161,3.161,0,0,1-.7-.952A3.051,3.051,0,0,1,.864-8.336,2.926,2.926,0,0,1,1.9-10.728a4.325,4.325,0,0,1,2.832-.856,6.717,6.717,0,0,1,1.7.208,11.99,11.99,0,0,1,1.7.592L7.344-8.9a13.431,13.431,0,0,0-1.408-.5,4.693,4.693,0,0,0-1.28-.176,1.562,1.562,0,0,0-1.056.32,1.051,1.051,0,0,0-.368.832,1.09,1.09,0,0,0,.544.96,15.243,15.243,0,0,0,1.616.864,9.326,9.326,0,0,1,1.5.864A3.245,3.245,0,0,1,7.84-4.672,3.075,3.075,0,0,1,8.176-3.168Z" transform="translate(-0.736 13.5)"/><path class="g" d="M0,3V0" transform="translate(3.798)"/><path class="g" d="M0,3V0" transform="translate(3.798 13)"/></g></svg>