<svg xmlns="http://www.w3.org/2000/svg" xmlns:xlink="http://www.w3.org/1999/xlink" width="420.865" height="293.111" viewBox="0 0 420.865 293.111"><defs><style>.a,.b{fill:#00ffa2;}.b,.e,.g{opacity:0.1;}.c{fill:url(#a);}.d{fill:#444176;}.f{fill:#565387;}.h{fill:#ced2df;}.i{fill:#88455e;}.j{fill:#ec8c9c;}.k{fill:#ebf1f6;}.l{fill:url(#b);}.m{fill:url(#c);}.n{fill:#ffbdc6;}.o{fill:#7679b4;}.p{fill:#a66477;}.q{fill:#f2f1f2;}.r{fill:#565388;}.s{fill:url(#d);}.t{fill:#493545;}.u{opacity:0.05;}.v{fill:#3e3d77;}.w{fill:#c77485;}.x{fill:#ffaac4;}.aa,.y{fill:none;stroke-miterlimit:10;}.y{stroke:#535461;strokeWidth:2px;}.z{fill:#dee3f3;opacity:0.5;}.aa{stroke:#00ffa2;}.ab{fill:#a8a8a8;}.ac{opacity:0.2;}.ad{fill:#ffd037;}</style><linearGradient id="a" x1="0.5" y1="1" x2="0.5" gradientUnits="objectBoundingBox"><stop offset="0" stop-color="gray" stop-opacity="0.251"/><stop offset="0.54" stop-color="gray" stop-opacity="0.122"/><stop offset="1" stop-color="gray" stop-opacity="0.102"/></linearGradient><linearGradient id="b" x1="0.495" y1="1.014" x2="0.495" y2="0" xlink:href="#a"/><linearGradient id="c" x1="0.5" y1="1" x2="0.5" y2="0" xlink:href="#a"/><linearGradient id="d" x1="0.5" y1="1" x2="0.5" y2="0" xlink:href="#a"/></defs><g transform="translate(0 0)"><circle class="a" cx="20.6" cy="20.6" r="20.6" transform="translate(21.561 8.649)"/><path class="b" d="M182.9,190.444c8.649,19.536-2.384,42.033-15.371,58.972-4.347,5.681-9.146,11.636-9.748,18.761-.727,8.716,5.175,16.727,12.176,21.965a51.272,51.272,0,0,0,45.409,7.679c13.134-4.161,24.176-13.559,37.424-17.347,22.155-6.345,45.639,4.174,64.613,17.281,13.43,9.265,27.813,20.555,44,18.57,11.392-1.4,21.061-9.394,27.623-18.81,3.168-4.546,5.924-9.642,10.537-12.708a26.375,26.375,0,0,1,9.185-3.483c29.417-6.288,60.638,9.057,89.666,1.165,19.607-5.317,35.24-20.826,44.961-38.669s14.259-37.991,18.039-57.953c2.685-14.179,4.914-29.5-1.258-42.538-6.531-13.807-21.65-22.177-36.844-23.746s-30.432,2.761-44.43,8.866C461.4,136.1,444.257,146.8,425.168,146.839c-13,.027-25.4-4.963-37.828-8.769-20.781-6.359-42.391-9.518-63.926-12.433-20.617-2.792-41.439-5.388-62.18-3.74-14.675,1.165-27.636,6.775-41.877,9.372-9.283,1.693-18.61.443-27.72,3.279-11.219,3.509-22.758,11.64-23.378,24.446C167.674,171.183,178.317,180.08,182.9,190.444Z" transform="translate(-143.259 -119.26)"/><path class="c" d="M569.173,280.08c-1.892-4.932-6.77-16.523-9.983-14.224-4.059,2.907,4.059,15.748,4.059,15.748.23,2.357-4.334,7.262-6.779,9.708v-.306a1.072,1.072,0,0,1-.106.266l-.2-.111a1.329,1.329,0,0,1-.288.527,5.163,5.163,0,0,0-.022-.527c-.47,1.99-8.667,4.511-8.667,4.511h-.6c-2.278,0-8.206-.514-10.953-4.91a24.308,24.308,0,0,0-5.375-6.27,4.578,4.578,0,0,0-2.548-.966,32.784,32.784,0,0,1-14.964-5.149l-.226-.155-.049.142c-.288-.412-.567-.851-.829-1.3h0l-.133-.244a11.131,11.131,0,0,0,6.137-9.9v-.23a7.581,7.581,0,0,0,1.019-3.8v-1.329l1.732-1.542a7.126,7.126,0,0,0,2.016-2.419,2.869,2.869,0,0,0,.213-1.241,2.149,2.149,0,0,0-.815-1.923c-1.329-.917-3.545,0-4.506-1.276-.443-.576-.363-1.36-.58-2.038a3.647,3.647,0,0,0-3.514-2.145,15.182,15.182,0,0,0-4.307.917,25.288,25.288,0,0,1-9.172.86,5.991,5.991,0,0,0-2.512.089,3.46,3.46,0,0,0-2.038,2.371,5.571,5.571,0,0,0-.2,1.214,7.638,7.638,0,0,0-1.923,5.056v3.407a7.634,7.634,0,0,0,1.839,4.958,11.077,11.077,0,0,0,4.639,8.082v.27l.058.035a18.323,18.323,0,0,1-.487,3.133v-.226a32.025,32.025,0,0,1-12.85,3.381h-.731a4.95,4.95,0,0,0-3.545,1.329c-1.967,1.852-5.415,4.781-7.533,4.781-.443,0-11.627,2.185-13.479,2.548l-3.461-3.39-.106.2-.2-.2a8.41,8.41,0,0,0-1.125.164,26.82,26.82,0,0,1-6.137-13.537s7.652-8.716,4.839-16.838c-2.4-6.921-9.017,7.914-10.9,12.385a3.571,3.571,0,0,0-.115,2.459l6.217,20.037a9.4,9.4,0,0,0-.492,4.874h-.071l4.528,5.809a23.913,23.913,0,0,0,8.738,1.427,30.546,30.546,0,0,0,11.405-2.189h1.05l-.2.075h5.393l3.43,10.373c-.115.944-1.772,14.117-3.1,17.064a7.4,7.4,0,0,0-.523,3.1,23.681,23.681,0,0,0,.988,6l3-.111-.115.235a156.388,156.388,0,0,0-9.305,23.192l-4.373,8.862,3.279,39.746h.133l.253.04h0c.354.053.886.133,1.586.222l-.257.443L468.1,423.6s-5.153,10.55,6.248,8.561c0,0,4.214-1.223,5.933-8.419l7.5-7.032s.35-4.67-1.772-6.536c-.133-2.158-.47-8.459.049-9.974.625-1.834-2.659-22.931-2.659-22.931s11.866-24.614,19.053-25.226a3.939,3.939,0,0,1,1.555.2c5.906,1.923,13.063,16.2,15.167,20.648h0l.1.2v.04l.08.173v.049l.071.151v.04l.062.137v.031l.053.111v.044l.04.084v.035l.027.062v.075h0l.022.053.935,27.672h0l.093.049h.044l-.08.572-.408,2.858s5.153,10.856,4.839,12.23,3.434,6.881,8.742,5.353,2.149-10.147,2.149-10.147l-5.113-10.537-.226-.47a10.064,10.064,0,0,0,1.436-1.068s-1.56-11.312,0-13.758,2.029-13.608,2.029-13.608-1.094-7.644-2.969-11.007l-7.852-28.026c2.353,2.189,4.183,3.044,5.712,2.986h.253a3.815,3.815,0,0,0,1.923-.479,5.433,5.433,0,0,0,.886-.625,1.413,1.413,0,0,0,.146-.146h0c2.184-1.834-2.5-9.022-5.153-13.293-2.557-4.121.966-15.318,1.232-16.151a4.236,4.236,0,0,1,.758-.443,4.677,4.677,0,0,1,1.737-.377c2.543.089,5.672,1.551,9.544,2.286a45.024,45.024,0,0,0,8.149.634h.16c1.086,0,2.069-.022,2.867-.053a4.844,4.844,0,0,0,2.083-.563h0a6.288,6.288,0,0,0,1.48-1.2l6.8-7.679-.177.084a3.82,3.82,0,0,0,0-2.7l7.183-12.407A4.719,4.719,0,0,0,569.173,280.08Z" transform="translate(-302.462 -191.5)"/><path class="d" d="M519.6,615.9l-7.236,6.935c-1.657,7.089-5.729,8.29-5.729,8.29-11,1.958-6.031-8.419-6.031-8.419l6.979-11.808.86-1.458s4.976-1.507,8.29-.6a2.837,2.837,0,0,1,1.13.611C519.939,611.252,519.6,615.9,519.6,615.9Z" transform="translate(-333.584 -391.745)"/><path class="d" d="M629.1,610.5c-5.127,1.507-8.742-3.917-8.419-5.277S616,593.178,616,593.178l.39-2.818.363-2.61,8.419.6.793,1.666,4.936,10.391S634.229,608.992,629.1,610.5Z" transform="translate(-398.473 -380.162)"/><path class="e" d="M528.125,610.6c-.793,1.36-7.223.674-10.355.248l.859-1.458s4.976-1.507,8.291-.6a2.838,2.838,0,0,1,1.13.611C528.094,610.134,528.125,610.6,528.125,610.6Z" transform="translate(-343.769 -391.717)"/><path class="e" d="M626.453,590c-4.311,2.871-8.9.7-9.593.341l.363-2.61,8.419.6Z" transform="translate(-398.952 -380.151)"/><path class="f" d="M566.347,485.494c-1.507,2.41,0,13.568,0,13.568-4.976,4.524-10.852,1.205-10.852,1.205l-.886-27.282s-9.8-22.461-16.731-21.858S519.489,476,519.489,476s3.164,20.8,2.561,22.6,0,10.55,0,10.55c-1.055,1.808-12.057,0-12.057,0l-3.164-39.192,4.2-8.747A155.07,155.07,0,0,1,520,438.344c1.219-2.557,2.034-4.116,2.034-4.116l8.02-1.67,26.032-5.4,9.354,34.048c1.808,3.314,2.862,10.851,2.862,10.851S567.854,483.084,566.347,485.494Z" transform="translate(-337.676 -290.73)"/><g class="g" transform="translate(169.136 136.413)"><path d="M598.816,530.375l-.886-27.282s-9.8-22.461-16.731-21.858a3.772,3.772,0,0,0-.908.2c6.762,2.247,15.229,21.654,15.229,21.654l.886,27.282a10.636,10.636,0,0,0,6,1.095A10.669,10.669,0,0,1,598.816,530.375Z" transform="translate(-547.722 -457.25)"/><path d="M512.364,509.138,509.2,469.946l4.218-8.76a155.085,155.085,0,0,1,8.973-22.864c1.219-2.557,2.034-4.116,2.034-4.116l8.02-1.67,23.764-4.941-.129-.474-26.045,5.415-8.02,1.67s-.815,1.56-2.034,4.116a154.879,154.879,0,0,0-8.973,22.864l-4.218,8.742,3.164,39.192a56.613,56.613,0,0,0,9.571.771A71.185,71.185,0,0,1,512.364,509.138Z" transform="translate(-506.79 -427.12)"/></g><path class="h" d="M468.571,338.21s-8.592.443-7.386,9.5l2.411.3,3.616-3.917,1.808-3.314v-.753Z" transform="translate(-312.191 -241.193)"/><path class="e" d="M468.571,338.21s-8.592.443-7.386,9.5l2.411.3,3.616-3.917,1.808-3.314v-.753Z" transform="translate(-312.191 -241.193)"/><path class="h" d="M693.159,345.69s7.09,3.766,5.277,8.14l-2.26.886-3.013-1.657-.443-3.917.3-2.712Z" transform="translate(-441.198 -245.359)"/><path class="e" d="M693.159,345.69s7.09,3.766,5.277,8.14l-2.26.886-3.013-1.657-.443-3.917.3-2.712Z" transform="translate(-441.198 -245.359)"/><rect class="i" width="24.721" height="18.69" rx="9.345" transform="translate(191.065 61.44)"/><path class="j" d="M461.47,299.8l-5.277,8.419-.443-1.5-7.169-23.36a3.594,3.594,0,0,1,.111-2.424c1.812-4.4,8.2-19.053,10.519-12.207,2.712,7.976-4.675,16.581-4.675,16.581a26.551,26.551,0,0,0,6.305,13.8C461.231,299.561,461.47,299.8,461.47,299.8Z" transform="translate(-305.148 -201.499)"/><path class="j" d="M691.16,315.571s8.29-7.838,7.976-11c0,0-7.839-12.659-3.917-15.509,3.1-2.269,7.812,9.163,9.638,14.024a4.742,4.742,0,0,1-.315,3.988l-9.908,17.542Z" transform="translate(-440.33 -213.658)"/><path class="j" d="M565.545,299.918s1.507,9.646-2.862,13.266,12.513,3.6,12.513,3.6l6.031-5.579s-6.935-6.483-4.825-11.3Z" transform="translate(-368.378 -219.859)"/><path class="e" d="M553.729,324.013s6.483,4.825,12.961-.6l10.55,21.858-.6,26.679s-21.858,11.3-30.9,4.373-1.506-10.55-1.506-10.55l-2.109-20.5,2.26-13.266s4.068-6.332,4.373-6.332S553.729,324.013,553.729,324.013Z" transform="translate(-356.864 -232.951)"/><path class="k" d="M553.735,323.333s6.482,4.834,12.965-.6l10.55,21.858-.6,26.679s-21.858,11.3-30.9,4.373-1.507-10.55-1.507-10.55l-2.109-20.5,2.26-13.266s4.068-6.332,4.373-6.332S553.735,323.333,553.735,323.333Z" transform="translate(-356.87 -232.573)"/><path class="e" d="M509.5,319s-6.146,3.5-12.819,3.328a4.723,4.723,0,0,0-3.407,1.3c-1.9,1.826-5.229,4.715-7.289,4.715-.443,0-13.266,2.561-13.266,2.561l-3.39-3.39s-5.051,9.872-7.462,9.42l4.373,5.729s8.291,3.616,19.142-.753h6.332l3.314,10.249s-1.657,13.869-3.013,16.882.443,8.893.443,8.893l11.906-.443s.6-5.88,1.507-6.646-3.164-26.679-3.164-26.679-2.712-14.622,7.236-19.9Z" transform="translate(-312.638 -230.495)"/><path class="e" d="M546.609,439.38a39.366,39.366,0,0,0-.935,5.437l-9.115.346c1.218-2.557,2.034-4.116,2.034-4.116Z" transform="translate(-354.233 -297.535)"/><path class="e" d="M470.68,340.226l-5.277,8.419-.443-1.5c1.936-1.923,4.205-5.942,5.109-7.617A8.932,8.932,0,0,0,470.68,340.226Z" transform="translate(-314.359 -241.928)"/><path class="h" d="M509.108,319s-6.452,3.5-13.12,3.328a4.723,4.723,0,0,0-3.407,1.3c-1.9,1.826-5.229,4.715-7.289,4.715-.443,0-13.266,2.561-13.266,2.561l-3.4-3.394s-5.051,9.872-7.462,9.42l4.373,5.729s8.29,3.616,19.142-.753h6.332l3.314,10.244s-1.657,13.869-3.013,16.882.443,8.893.443,8.893l11.906-.443s.6-5.88,1.506-6.646S502,344.159,502,344.159s-2.712-14.622,7.236-19.9Z" transform="translate(-312.243 -230.495)"/><path class="e" d="M596.018,316.94a29.332,29.332,0,0,0,14.361,5.229,4.365,4.365,0,0,1,2.459.953,23.807,23.807,0,0,1,5.189,6.2c3.314,5.428,11.454,4.825,11.454,4.825s7.914-2.486,8.366-4.431c0,0,.226,10.634,5.2,8.064l-6.545,7.542a4.616,4.616,0,0,1-3.3,1.591,48.527,48.527,0,0,1-10.338-.572c-5.428-1.055-9.345-3.616-12.207-1.356,0,0-3.766,11.755-1.205,15.978s7.09,11.3,4.976,13.116-4.675,1.657-8.893-2.712-4.675-11.755-4.675-11.755l1.054-18.991s-4.068-14.321-7.976-17.183Z" transform="translate(-386.188 -229.348)"/><path class="e" d="M644.382,337.777l-6.562,7.573a4.613,4.613,0,0,1-1.582,1.179h0a4.6,4.6,0,0,1-1.71.4,47.942,47.942,0,0,1-10.337-.572c-5.078-.988-8.835-3.292-11.645-1.737a4.116,4.116,0,0,0-.567.377s-3.766,11.755-1.205,15.978,7.089,11.3,4.976,13.116a4.874,4.874,0,0,1-1.179.767c-1.9.855-4.249.115-7.714-3.478-4.218-4.373-4.675-11.755-4.675-11.755l1.055-18.991s-4.068-14.321-7.976-17.183l1.724-6.181a31.292,31.292,0,0,0,14.445,5.078,4.365,4.365,0,0,1,2.459.953,23.827,23.827,0,0,1,5.189,6.2c3.314,5.428,11.454,4.825,11.454,4.825a43.987,43.987,0,0,0,5.7-2.269h0a8.69,8.69,0,0,0,2.658-1.772,1.33,1.33,0,0,0,.288-.532S639.41,340.338,644.382,337.777Z" transform="translate(-386.923 -229.532)"/><path class="h" d="M643.685,337.749l-6.558,7.581a4.613,4.613,0,0,1-1.276,1.028h0a4.6,4.6,0,0,1-2.012.554,47.946,47.946,0,0,1-10.338-.572c-4.9-.953-8.569-3.133-11.339-1.888a4.093,4.093,0,0,0-.886.527s-3.766,11.755-1.205,15.978,7.09,11.3,4.976,13.116a5.223,5.223,0,0,1-.886.616c-1.95,1.077-4.36.443-8.016-3.328-4.218-4.373-4.675-11.755-4.675-11.755l1.055-18.991s-4.068-14.321-7.976-17.184l1.808-6.483.217.151a31.29,31.29,0,0,0,14.445,5.078,4.365,4.365,0,0,1,2.459.953,23.824,23.824,0,0,1,5.189,6.2c3.314,5.428,11.454,4.825,11.454,4.825a43.983,43.983,0,0,0,5.7-2.269h0c1.369-.7,2.486-1.467,2.659-2.167v.381C638.616,331.936,639.281,340.013,643.685,337.749Z" transform="translate(-386.527 -229.354)"/><path class="e" d="M580.927,300.45H569.85a27.09,27.09,0,0,1,.208,5.317,11.388,11.388,0,0,0,11.707.842C580.7,304.642,580.055,302.409,580.927,300.45Z" transform="translate(-372.772 -220.165)"/><circle class="j" cx="11.002" cy="11.002" r="11.002" transform="translate(192.798 65.437)"/><path class="e" d="M569.03,267.964a11.749,11.749,0,0,1,3.665-.337c1.1.222,2.034.979,3.133,1.21,2.118.443,4.086-1.117,5.685-2.57l3.456-3.146a7.052,7.052,0,0,0,1.95-2.384,2.392,2.392,0,0,0-.585-2.818c-1.263-.886-3.438,0-4.351-1.258a6.563,6.563,0,0,1-.563-2.007,3.528,3.528,0,0,0-3.394-2.114,15.016,15.016,0,0,0-4.156.886,23.929,23.929,0,0,1-8.862.846,5.661,5.661,0,0,0-2.424.084,3.389,3.389,0,0,0-1.967,2.335c-.682,2.41.483,6.3,1.653,8.454S566.695,268.252,569.03,267.964Z" transform="translate(-367.516 -193.483)"/><path class="i" d="M569.03,267.284a11.749,11.749,0,0,1,3.665-.337c1.1.222,2.034.979,3.133,1.21,2.118.443,4.086-1.117,5.685-2.57l3.456-3.146a7.053,7.053,0,0,0,1.95-2.384,2.392,2.392,0,0,0-.585-2.818c-1.263-.886-3.438,0-4.351-1.258a6.563,6.563,0,0,1-.563-2.007,3.527,3.527,0,0,0-3.394-2.114,15.016,15.016,0,0,0-4.156.886,23.929,23.929,0,0,1-8.862.846,5.661,5.661,0,0,0-2.424.084,3.39,3.39,0,0,0-1.967,2.335c-.682,2.41.483,6.3,1.653,8.454S566.695,267.55,569.03,267.284Z" transform="translate(-367.516 -193.105)"/><path class="e" d="M536.55,394a6.211,6.211,0,0,1,3.615,1.808,6.5,6.5,0,0,0,3.315,1.958" transform="translate(-354.227 -272.263)"/><path class="e" d="M487.452,349.09s1.967,4.391.753,4.834-.753,3.616-.753,3.616" transform="translate(-326.837 -247.252)"/><g class="g" transform="translate(161.156 88.576)"><path d="M488.917,335.1s12.81-2.561,13.253-2.561c2.065,0,5.388-2.889,7.289-4.715a4.652,4.652,0,0,1,2.065-1.148h-.164a4.723,4.723,0,0,0-3.407,1.3c-1.9,1.826-5.229,4.715-7.289,4.715-.359,0-8.556,1.626-11.884,2.286Z" transform="translate(-488.78 -323.345)"/><path d="M557.069,319.723v-.563a31.982,31.982,0,0,1-9.819,3.142A30.341,30.341,0,0,0,557.069,319.723Z" transform="translate(-521.342 -319.16)"/><path d="M524.271,406.544s-1.808-5.88-.443-8.893,3.013-16.882,3.013-16.882l-3.306-10.249h-6.35l-.386.151h5.207l3.3,10.253s-1.657,13.869-3.013,16.882.443,8.893.443,8.893l11.906-.443v-.093Z" transform="translate(-504.384 -347.762)"/></g><g class="g" transform="translate(215.094 108.404)"><path d="M624.086,423.316a5.234,5.234,0,0,1-.886.616c-1.95,1.077-4.36.443-8.016-3.328-3.35-3.469-4.325-8.862-4.586-10.9l-.089,1.56s.443,7.386,4.675,11.755c3.656,3.784,6.066,4.4,8.016,3.328a5.231,5.231,0,0,0,.886-.616c.634-.545.669-1.569.337-2.845A1.4,1.4,0,0,1,624.086,423.316Z" transform="translate(-610.51 -389.411)"/><path d="M660.139,364.127l-4.267,4.932a4.608,4.608,0,0,1-1.276,1.028h0a4.6,4.6,0,0,1-2.012.554,47.952,47.952,0,0,1-10.338-.572c-4.9-.953-8.569-3.133-11.339-1.888a4.1,4.1,0,0,0-.886.527s-2.433,7.595-2.061,12.766a49.851,49.851,0,0,1,2.061-10.355,4.1,4.1,0,0,1,.886-.527c2.774-1.245,6.443.935,11.339,1.888a48.519,48.519,0,0,0,10.338.572,4.6,4.6,0,0,0,2.012-.554h0a4.612,4.612,0,0,0,1.276-1.015l6.563-7.573A2.583,2.583,0,0,1,660.139,364.127Z" transform="translate(-620.207 -363.91)"/></g><path class="l" d="M265.74,486.89a.341.341,0,0,0,.4.053A1.374,1.374,0,0,1,265.74,486.89Z" transform="translate(-203.413 -323.993)"/><path class="m" d="M232.563,293.248c-.8-.23-1.936-.607-3.306-1.086a17.335,17.335,0,0,0,3.062-6.168l-.115.044c.04-.137.08-.27.115-.412-2.628,1.068-5.534-.74-7.387-3.062s-3.1-5.2-5.131-7.338a23.477,23.477,0,0,0-2.721-2.344,3.762,3.762,0,0,0-1.972-.966c-1.183-.035-2.109,1.125-3.248,1.467a4.43,4.43,0,0,1-2.264-.084c-2.938-.673-5.76-1.919-8.76-2.246a10.267,10.267,0,0,0-4.754.536c-1.507.572-2.193,1.71-3.412,2.623-1.329.979-3.926.957-5.472,1.13a39.216,39.216,0,0,1-5.654.235,13.235,13.235,0,0,0-3.252.12c-2.247.492-4.05,2.277-5.734,3.988a2.955,2.955,0,0,0-.948,1.484,1.875,1.875,0,0,0,0,.492,3.194,3.194,0,0,0,.226,1.307,17.28,17.28,0,0,0,2.176,4.329,12.507,12.507,0,0,1,1.879,3.075,5.968,5.968,0,0,1,.288,1.772,12.884,12.884,0,0,1-.2,1.905,23.925,23.925,0,0,1-1.458,5.073,9.215,9.215,0,0,0-.851,2.659,4.243,4.243,0,0,0,0,.567c-.111,2.925,2.84,5.029,3.412,7.936a4.741,4.741,0,0,1,.084.731,4.951,4.951,0,0,1-2.619,4.289c.133.053.27.1.408.142a3.729,3.729,0,0,1-.408.221,8.279,8.279,0,0,0,.851.275,19.764,19.764,0,0,0-4.3,5.317c-5.127,9.544-39.848,28.239-39.848,28.239l.514.292-.417.27c-3,2-10.054,7.825-3.682,15.194,0,0,4.976-7.852,8.463-11.2.155-.151.31-.288.443-.417a1.019,1.019,0,0,1,.133.806l22.829-12.828s8.113-5.681,10.377-6.961a18.677,18.677,0,0,1,5.144-2.216l-.266.111a10.422,10.422,0,0,1,2.619-.372c4.041.062,8.419,3.022,9.859,14.742,1.932,15.695,1.037,18.526.417,18.912a1.147,1.147,0,0,1-.226-.04.382.382,0,0,0,.062.044,1.2,1.2,0,0,1-.248-.044.355.355,0,0,0,.337.08.315.315,0,0,0,.253-.031h0a2.647,2.647,0,0,0,.306,0,3.259,3.259,0,0,1-.031.443c-.031,0-.182.084,0,.093h0c-.049.886-.044,1.848,0,2.854-2.007.111-4.014.231-5.76.337l.155-.829.071-.372c1.542-.124,3-.576,3.177-1.826.377-2.747-3.394-4.214-6.6-4.4s-22.447,1.1-22.447,1.1-2.885,3.735,6.265,4.874l.846.443a101.715,101.715,0,0,1,10.776,7.657l.323.257-1.046.851c5.658,1.281,11.131,22.9,14.148,32.789s9.62,9.527,15.092,8.06c5.127-1.374,5.76-16.262,5.844-18.132v-.191l9.119,11.264.691.855q.4.208.789.39c6.9,3.283,14.529-3.013,12.362-10.191-2.193-7.236-5.6-17.937-7.865-22.461-1.9-3.789-4.356-10.081-5.844-14.02a4.738,4.738,0,0,0,.563-.27s-.035-.177-.093-.5l.093-.049s-2.215-11.4-2.313-19.5v-.7c1.648-.377,2.694-.523,2.694-.523l.031-.355-.191.04.917-10.5s3.368-7.165.789-10.147a6.266,6.266,0,0,1-1.511-3.1c-.443-2.743,0-7.32,6-11.122,9.243-5.862,12.85-10.634,12.85-10.634S238.221,294.914,232.563,293.248ZM214.2,300.532V295.68c1.715-.084,3.465.115,5.189,0a13.139,13.139,0,0,0,2.5-.421l.417.288A45.642,45.642,0,0,1,214.2,300.532ZM188,376.586c.678.47,1.36.957,2.029,1.449.417,2.393.784,4.081.811,4.2A33.171,33.171,0,0,0,188,376.586Z" transform="translate(-125.08 -203.75)"/><path class="n" d="M273.6,500.32l-.4,2.167-.306,1.657-.558,3.031-5.415,3.789s-.487-.417-1.294-1.077a94.928,94.928,0,0,0-10.307-7.533,11.517,11.517,0,0,0-2.831-1.307Z" transform="translate(-196.034 -331.472)"/><path class="e" d="M273.594,500.32l-.4,2.167a16.838,16.838,0,0,1-3.571-.182l-12.633.182c-.6-.036-1.157-.084-1.679-.137a11.517,11.517,0,0,0-2.831-1.307Z" transform="translate(-196.029 -331.472)"/><path class="o" d="M264.115,496.477s6.319,1.081,6.678-1.626-3.248-4.134-6.31-4.338S243,491.6,243,491.6s-3.248,4.329,8.481,5.051Z" transform="translate(-190.52 -325.998)"/><path class="e" d="M273.6,500.32l-.4,2.167-.306,1.657-.558,3.031-5.415,3.789s-.487-.417-1.294-1.077a94.928,94.928,0,0,0-10.307-7.533,11.517,11.517,0,0,0-2.831-1.307Z" transform="translate(-196.034 -331.472)"/><path class="e" d="M273.594,500.32l-.4,2.167a16.838,16.838,0,0,1-3.571-.182l-12.633.182c-.6-.036-1.157-.084-1.679-.137a11.517,11.517,0,0,0-2.831-1.307Z" transform="translate(-196.029 -331.472)"/><path class="e" d="M264.115,496.477s6.319,1.081,6.678-1.626-3.248-4.134-6.31-4.338S243,491.6,243,491.6s-3.248,4.329,8.481,5.051Z" transform="translate(-190.52 -325.998)"/><rect class="p" width="33.024" height="39.161" transform="translate(54.373 81.499)"/><rect class="e" width="33.024" height="39.161" transform="translate(54.373 81.499)"/><path class="n" d="M144.621,450.412a5.29,5.29,0,0,0-2.012,1.422c-3.337,3.3-8.1,11.029-8.1,11.029-6.1-7.258.651-13,3.545-14.968.7-.479,1.17-.736,1.17-.736Z" transform="translate(-128.958 -301.867)"/><path class="n" d="M277.317,331.09s1.626,11.37,7.218,14.077-7.218,7.759-7.218,7.759l-17.507-6.5s9.926-3.248,7.94-12.814Z" transform="translate(-200.111 -237.228)"/><path class="n" d="M230.469,485.45l-.4,2.167-.306,1.657-.558,3.031-5.415,3.789s-.487-.416-1.294-1.077a94.919,94.919,0,0,0-10.306-7.533,11.524,11.524,0,0,0-2.831-1.307Z" transform="translate(-172.015 -323.191)"/><path class="e" d="M230.464,485.45l-.4,2.167a16.83,16.83,0,0,1-3.571-.182l-12.633.182c-.6-.035-1.156-.084-1.679-.137a11.522,11.522,0,0,0-2.831-1.307Z" transform="translate(-172.01 -323.191)"/><path class="o" d="M220.94,481.614s6.319,1.081,6.678-1.626-3.248-4.152-6.319-4.329-21.477,1.081-21.477,1.081-3.248,4.329,8.481,5.051Z" transform="translate(-166.473 -317.729)"/><path class="e" d="M246.237,493.928l-.558,3.031-5.415,3.789s-.487-.417-1.294-1.077l7.16-5.871Z" transform="translate(-188.505 -327.841)"/><path class="o" d="M281.084,525.152q-.372-.182-.753-.385l-.66-.842-8.72-11.078v.195c-.058,1.839-.687,16.506-5.587,17.857-5.233,1.445-11.552,1.8-14.436-7.94s-8.122-31.039-13.537-32.3l8.029-6.589s5.317,6.2,7.488,12.176c-.08-.381-3.753-17.534-.722-20.564h26.347s4.059,11.583,6.859,17.325c2.171,4.458,5.428,14.995,7.533,22.124A8.475,8.475,0,0,1,281.084,525.152Z" transform="translate(-187.625 -317.75)"/><path class="e" d="M297.385,451.257c-4.063,2.406-21.929,1.427-27.751,1.037l-1.582-.115c-.173,0,.027-.1.027-.1l.164-1.64,4.329-11.007L295.763,426a20.07,20.07,0,0,0-.589,6.066C295.289,440.033,297.385,451.257,297.385,451.257Z" transform="translate(-204.661 -290.083)"/><path class="q" d="M297.145,450.058c-4.063,2.406-21.929,1.427-27.751,1.037l-1.582-.115h-.261l.288-.075,1.427-.377,3.066-12.274,23.192-13.444a20.071,20.071,0,0,0-.589,6.066C295.049,438.83,297.145,450.058,297.145,450.058Z" transform="translate(-204.421 -289.421)"/><path class="e" d="M295.268,430.808c-4.715,1.086-15.092,4.28-19.08,11.964-2.659,5.131-4.874,7.333-6.456,8.255l-1.582-.115.027-.1,1.427-.377,3.066-12.274,23.192-13.444A20.073,20.073,0,0,0,295.268,430.808Z" transform="translate(-204.755 -289.371)"/><path class="e" d="M146.74,447.17l5.415,3.248a5.289,5.289,0,0,0-2.012,1.422c-.443-1.329-3.288-3.155-4.573-3.935C146.27,447.427,146.74,447.17,146.74,447.17Z" transform="translate(-136.491 -301.873)"/><path class="e" d="M265.521,484.279a.324.324,0,0,1-.381-.049A1.3,1.3,0,0,0,265.521,484.279Z" transform="translate(-203.079 -322.512)"/><path class="r" d="M211.044,326.557a10.735,10.735,0,0,1-8.3-3.066s-14.436,4.152-19.31,13.537-38.08,27.791-38.08,27.791,5.76,3.248,5.233,4.874l21.836-12.633s7.759-5.6,9.925-6.859,14.077-9.022,16.6,12.092,0,18.61,0,18.61,3.611,1.263,8.862-8.862,21.477-12.451,21.477-12.451l.886-10.634s3.221-7.054.753-10a6.248,6.248,0,0,1-1.445-3.053c-.412-2.7,0-7.209,5.76-10.953,8.862-5.76,12.274-10.466,12.274-10.466s.182-3.43-5.233-5.051S214.85,298.97,214.85,298.97l-.722,3.066,17.325,12.274s-8.663,7.037-15.508,6.859C215.918,321.138,217.181,326.376,211.044,326.557Z" transform="translate(-136.368 -219.341)"/><path class="e" d="M287.611,336.691a35.438,35.438,0,0,1-1-4.431l-9.567,2.543a10.544,10.544,0,0,1-.217,5.517,10.289,10.289,0,0,0,10.781-3.633Z" transform="translate(-209.589 -237.88)"/><circle class="n" cx="10.289" cy="10.289" r="10.289" transform="translate(59.788 81.677)"/><path class="e" d="M260.378,273.886c2.854.323,5.57,1.551,8.379,2.215a4.138,4.138,0,0,0,2.167.084c1.09-.337,1.976-1.48,3.1-1.444a3.26,3.26,0,0,1,1.888.953,22.645,22.645,0,0,1,2.6,2.309c1.936,2.1,3.142,4.94,4.91,7.227s4.555,4.068,7.067,3.017c-1.706,6.647-7.307,11.729-13.359,12.141-2.415.164-4.874-.337-7.227.372a6.328,6.328,0,0,1-1.826.443c-1.329,0-2.428-1.236-3.27-2.437-1.967-2.827-3.545-6.035-5.76-8.609a4.708,4.708,0,0,0-2.628-1.817,4.866,4.866,0,0,0-2.907.815,13.8,13.8,0,0,0-4.254,2.951,5.9,5.9,0,0,0-1.436,5.189,12.674,12.674,0,0,1,.886,2.9c0,1.64-1.427,2.84-1.715,4.431a17.113,17.113,0,0,0-.071,2.021,8.242,8.242,0,0,1-3.053,5.357,3.853,3.853,0,0,0-1.4,1.936c-.115.563,0,1.161-.075,1.732-.217,1.422-1.635,2.14-2.889,2.326a8.376,8.376,0,0,1-4.333-.514,4.981,4.981,0,0,0,2.424-5.317c-.558-2.929-3.5-5.029-3.252-8.016a9.274,9.274,0,0,1,.815-2.636,24.129,24.129,0,0,0,1.391-5,8.468,8.468,0,0,0-.084-3.988,12.594,12.594,0,0,0-1.8-3.031,17.2,17.2,0,0,1-2.083-4.267,2.991,2.991,0,0,1-.2-1.409,2.921,2.921,0,0,1,.886-1.462c1.613-1.688,3.341-3.447,5.486-3.935a12.3,12.3,0,0,1,3.1-.12,36.44,36.44,0,0,0,5.41-.23c1.48-.173,3.988-.151,5.237-1.117,1.165-.886,1.826-2.016,3.266-2.583A9.558,9.558,0,0,1,260.378,273.886Z" transform="translate(-184.833 -205.321)"/><path class="e" d="M308.48,513.76s5.955,11.729,4.152,15.34" transform="translate(-227.215 -338.957)"/><path class="e" d="M321.8,567.586l-8.72-11.078v.195s-.505-3.58,1.157-2.375c3.638,2.632,9.46,6.948,9.584,7.692S322.641,565.751,321.8,567.586Z" transform="translate(-229.736 -361.411)"/><g class="g" transform="translate(9.164 79.598)"><path d="M302.934,348.816s.736,3.048-1.644,4.573A4.087,4.087,0,0,0,305,348.67,11.546,11.546,0,0,1,302.934,348.816Z" transform="translate(-232.375 -326.617)"/><path d="M147.749,395.289s33.206-18.406,38.08-27.791c3.5-6.735,11.919-10.772,16.395-12.518-3.266,1.094-14.255,5.291-18.384,13.24-4.874,9.385-38.08,27.791-38.08,27.791Z" transform="translate(-145.76 -330.131)"/><path d="M309.2,319.668a39.547,39.547,0,0,0,11.051-6.146l-17.325-12.274.394-1.684-1.657-.665-.722,3.066,17.325,12.274A41.8,41.8,0,0,1,309.2,319.668Z" transform="translate(-232.18 -298.9)"/><path d="M319.83,437.035a42.925,42.925,0,0,1,6.793-1.715l.031-.35A45.96,45.96,0,0,0,319.83,437.035Z" transform="translate(-242.699 -374.677)"/><path d="M254.034,440.627h-.16a.323.323,0,0,1-.381-.049,1.322,1.322,0,0,0,.381.049c.594-.346,1.484-3.04-.381-18.637-1.994-16.652-9.819-15.345-14.1-13.43,4.378-1.205,10.4-.164,12.119,14.153,1.865,15.6.975,18.3.381,18.637A3.988,3.988,0,0,0,254.034,440.627Z" transform="translate(-197.902 -359.362)"/><path d="M267.121,483.879a1.332,1.332,0,0,1-.381-.049A.324.324,0,0,0,267.121,483.879Z" transform="translate(-213.134 -401.887)"/></g><path class="p" d="M260.378,273.1c2.854.323,5.57,1.551,8.379,2.215a4.139,4.139,0,0,0,2.167.084c1.09-.337,1.976-1.48,3.1-1.444a3.26,3.26,0,0,1,1.888.953,22.652,22.652,0,0,1,2.6,2.309c1.936,2.1,3.142,4.94,4.91,7.227s4.555,4.068,7.068,3.018c-1.706,6.646-7.307,11.729-13.36,12.141-2.415.164-4.874-.337-7.227.372a6.329,6.329,0,0,1-1.826.443c-1.329,0-2.428-1.236-3.27-2.437-1.967-2.827-3.545-6.035-5.76-8.61a4.71,4.71,0,0,0-2.628-1.817,4.866,4.866,0,0,0-2.907.815,13.8,13.8,0,0,0-4.254,2.951,5.9,5.9,0,0,0-1.436,5.189,12.676,12.676,0,0,1,.886,2.9c0,1.639-1.427,2.84-1.715,4.431a17.117,17.117,0,0,0-.071,2.021,8.242,8.242,0,0,1-3.053,5.357,3.853,3.853,0,0,0-1.4,1.936c-.115.563,0,1.161-.075,1.732-.217,1.422-1.635,2.14-2.889,2.326a8.375,8.375,0,0,1-4.333-.514,4.981,4.981,0,0,0,2.424-5.317c-.558-2.929-3.5-5.029-3.252-8.016a9.274,9.274,0,0,1,.815-2.636,24.129,24.129,0,0,0,1.391-5,8.467,8.467,0,0,0-.084-3.988,12.591,12.591,0,0,0-1.8-3.031,17.2,17.2,0,0,1-2.083-4.267,2.992,2.992,0,0,1-.2-1.409,2.92,2.92,0,0,1,.886-1.462c1.613-1.688,3.341-3.447,5.486-3.935a12.3,12.3,0,0,1,3.1-.12,36.418,36.418,0,0,0,5.41-.23c1.48-.173,3.988-.151,5.237-1.117,1.165-.886,1.826-2.016,3.266-2.583A9.556,9.556,0,0,1,260.378,273.1Z" transform="translate(-184.833 -204.881)"/><path class="s" d="M840.568,206.561h0V206.4a.371.371,0,0,0-.027-.168h-.071v-.368c-.177-4.108-5.858-12.85-8.135-10.3-1.994,2.242,1.015,7.914,2.548,10.466l.137.23-.075-.049s-6.341,18.911-7.09,19.647-5.969,15.606-12.85,17.281c-1.36.323-2.49.616-3.439.886l.075-.253a27.412,27.412,0,0,0,1.21-4.431c.222-1.613,0-3.567-.815-4.351-.4-.39-.886-.443-1.214-1.063a4.909,4.909,0,0,1-.337-1.706l-.585-7.169.408-.124c2.464-.789,4.852-2.659,5.131-5.175a2.64,2.64,0,0,1-.262.084,4.408,4.408,0,0,0,.075-.443c-2.069.815-3.988-1.329-5.982-2.291-3.283-1.608-7.036-.093-10.426.275-3.841.421-7.488-1.174-11.414-.886-2.136.164-4.511,1.613-4.4,3.718.066,1.157.886,2.136,1.223,3.243.851,2.681-1.041,5.37-2.7,7.657a11.4,11.4,0,0,0-2.322,5.1c-3.815-3.988-7.94-8.6-8.419-10.329l-11.038-18.912s-.261.279-.682.691c-.067-.2-.146-.443-.235-.682-1.409-3.948-5.4-13.515-10.453-11.76s2.1,11.561,5.207,15.469l.443.541a1.4,1.4,0,0,1-.789-.035l12.31,21.114s2.238,4.041,4.289,5.14c0,0,15.291,19.279,15.478,23.134s6.877,14.139,6.877,14.139,2.238,16.709-1.679,19.647h.647q-.279.272-.572.6c-2.9,3.217-6.611,10.111-1.542,21.836,7.457,17.281,8.578,24.051,8.578,24.051s-14.179.736-16.971,1.285c-2.473.487-12.083.829-14.281.886-.784-.913-3.1-2.933-6.23,0-3.917,3.673-6.713,15.952-6.713,15.952s-1.493,9.917,3.545,7.342c0,0,5.969-8.264,7.643-8.632.833-.182,1.715-1.409,2.388-2.592l.036.022h0c.04,0,.2-.089.47-.2h0c1.241-.492,4.657-1.675,7.351-1.086,1.476.323,7.8.4,14.436.381-1.5,3.589-4.183,12.85-4.183,12.85s-1.121,8.636,2.6,8.281c2.659-.261,6.735-7.054,8.862-10.931,1.542-1.13,5.96-5.18,9.226-4.874l22-8.446s5.22-2.938,2.424-12.668c-2.216-7.737-8.521-23.573-11.011-29.745h0l-.075-.159c-.6-1.493-.966-2.379-.966-2.379h0a36.407,36.407,0,0,1-2-8.733c-.022-.235-.04-.474-.058-.709a3.92,3.92,0,0,0,.864-.5s-2.052-20.746,0-22.953h0l.035-.04h0v-.027h0l.035-.044h0l.08-.1h0l.1-.124h0c.111-.146.244-.328.394-.549h0a15.21,15.21,0,0,0,2.734-10.28h0q-.04-.3-.1-.607h0a12.665,12.665,0,0,0-1.276-3.6,9.96,9.96,0,0,1-.164-1.422v-1.258a4.286,4.286,0,0,1,.066-.638v-.08a.8.8,0,0,1,.04-.244v-.1a1.164,1.164,0,0,1,.053-.239V253.8c.027-.106.053-.213.089-.319v-.053q.04-.133.088-.261l.04-.1.089-.213.044-.106c.035-.08.075-.159.115-.239l.031-.066q.08-.146.168-.288l.049-.075.146-.208.071-.093.155-.186.071-.08c.08-.084.159-.168.248-.248,2.424-2.216,13.24-18.544,13.24-18.544s2.61-3.673,2.61-6.057C836.42,226.611,841.033,211.235,840.568,206.561Zm-29.037,137.25c-.266-2.517-.532-5.636-.775-8.862l4.218,6.576S814.576,343.527,811.531,343.811Z" transform="translate(-471.235 -161.44)"/><path class="t" d="M777.453,525.333s-2.526-3.988-6.319-.359-6.5,15.7-6.5,15.7-1.445,9.748,3.429,7.218c0,0,5.76-8.122,7.4-8.481s3.43-4.874,3.43-4.874Z" transform="translate(-481.138 -344.353)"/><path class="t" d="M843.142,548.632s-3.43-1.626-4.511-.359-4.692,13.9-4.692,13.9-1.081,8.3,2.526,7.94,9.925-13.364,9.925-13.364Z" transform="translate(-519.758 -357.908)"/><path class="u" d="M843.142,548.632s-3.43-1.626-4.511-.359-4.692,13.9-4.692,13.9-1.081,8.3,2.526,7.94,9.925-13.364,9.925-13.364Z" transform="translate(-519.758 -357.908)"/><path class="v" d="M864.507,466.667l7.759,12.092s-.54,2.707-5.233,2.167L850.97,491.033s-1.4,12.3,3.066,11.188c.722-.182,5.761-5.415,9.385-5.051l21.3-8.3s5.052-2.889,2.344-12.451-11.658-31.735-11.658-31.735l-14.148,7.914Z" transform="translate(-529.212 -300.486)"/><path class="u" d="M864.507,466.667l7.759,12.092s-.54,2.707-5.233,2.167L850.97,491.033s-1.4,12.3,3.066,11.188c.722-.182,5.761-5.415,9.385-5.051l21.3-8.3s5.052-2.889,2.344-12.451-11.658-31.735-11.658-31.735l-14.148,7.914Z" transform="translate(-529.212 -300.486)"/><path class="v" d="M834.593,468.171c1.081,6.859-5.051,7.4-5.051,7.4s-27.614.541-30.862-.182-7.581,1.263-7.581,1.263c-5.6-3.43-1.081-11.911-1.081-11.911s11.552-.359,14.259-.886,16.421-1.276,16.421-1.276-1.081-6.677-8.3-23.639c-4.905-11.521-1.329-18.3,1.493-21.459a11.883,11.883,0,0,1,2.477-2.18l22.2,1.081a28.81,28.81,0,0,0,.124,3.354,35.723,35.723,0,0,0,2.947,11.078c-1.263,0-9.385,7.582-9.385,7.582S833.507,461.316,834.593,468.171Z" transform="translate(-494.424 -284.125)"/><path class="e" d="M791.641,465.48s11.552-.359,14.259-.886,16.421-1.263,16.421-1.263-1.081-6.677-8.3-23.639c-4.9-11.521-1.329-18.3,1.493-21.459a11.887,11.887,0,0,1,2.477-2.18l20.569,1v-.642l-22.2-1.081a11.887,11.887,0,0,0-2.477,2.18c-2.809,3.164-6.4,9.939-1.493,21.459,7.24,16.948,8.313,23.626,8.313,23.626s-13.736.722-16.421,1.263-14.259.886-14.259.886-4.511,8.485,1.081,11.928c0,0,.168-.08.443-.195C787.826,472.654,791.641,465.48,791.641,465.48Z" transform="translate(-494.427 -284.141)"/><rect class="t" width="11.188" height="28.332" transform="translate(319.05 64.936)"/><rect class="e" width="11.188" height="28.332" transform="translate(319.05 64.936)"/><path class="t" d="M878.426,250.41c.385.106.819.12,1.081.651a3.989,3.989,0,0,1,.261,1.329l.7,8.756a4.88,4.88,0,0,0,.328,1.675c.3.594.789.665,1.174,1.046.775.771,1,2.7.789,4.276a28.1,28.1,0,0,1-1.17,4.342,40.909,40.909,0,0,1-1.848,6.048c-.846,1.719-2.384,2.659-3.377,1.214s-.86-4.36-1.046-6.748c-.31-3.988-1.865-7.426-1.972-11.441-.089-3.248.784-6.279,1.329-9.358.39-2.114.412-4.679.979-6.58C876.135,247.88,877.039,250.029,878.426,250.41Z" transform="translate(-541.789 -189.63)"/><path class="e" d="M878.426,250.41c.385.106.819.12,1.081.651a3.989,3.989,0,0,1,.261,1.329l.7,8.756a4.88,4.88,0,0,0,.328,1.675c.3.594.789.665,1.174,1.046.775.771,1,2.7.789,4.276a28.1,28.1,0,0,1-1.17,4.342,40.909,40.909,0,0,1-1.848,6.048c-.846,1.719-2.384,2.659-3.377,1.214s-.86-4.36-1.046-6.748c-.31-3.988-1.865-7.426-1.972-11.441-.089-3.248.784-6.279,1.329-9.358.39-2.114.412-4.679.979-6.58C876.135,247.88,877.039,250.029,878.426,250.41Z" transform="translate(-541.789 -189.63)"/><path class="w" d="M762.4,211.526l-4.329,3.611s-.514-.6-1.281-1.577c-3.009-3.842-9.925-13.479-5.038-15.2s8.751,7.674,10.116,11.556C762.218,210.9,762.4,211.526,762.4,211.526Z" transform="translate(-473.13 -163.193)"/><path class="w" d="M943.954,210.4c-1.8,2.707-4.329,0-4.329,0s-.324-.483-.78-1.263c-1.485-2.512-4.4-8.082-2.468-10.289,2.215-2.521,7.705,6.084,7.874,10.12A2.4,2.4,0,0,1,943.954,210.4Z" transform="translate(-576.535 -163.33)"/><path class="w" d="M854.08,287.627s3.611,11.552,2.526,14.977,7.763,7.413,7.763,7.413h10.107s3.611-7.4,2.707-9.567-8.663-3.788-8.663-3.788-4.511,0-4.329-12.092Z" transform="translate(-531.06 -211.321)"/><path class="e" d="M770.87,226.313l-4.329,3.611s-.514-.6-1.281-1.577c1.573-.279,4.015-2.574,5.082-3.647C770.683,225.684,770.87,226.313,770.87,226.313Z" transform="translate(-481.596 -177.98)"/><path class="e" d="M947.859,223.675c-1.8,2.707-4.329,0-4.329,0s-.323-.483-.78-1.263l.058-.182c1.17.837,4.808.124,5.348,0A2.4,2.4,0,0,1,947.859,223.675Z" transform="translate(-580.44 -176.604)"/><path class="e" d="M870.814,419.72c-5.583,2.548-23.724-1.99-24.814-2.26a11.893,11.893,0,0,1,2.477-2.18l22.2,1.081A28.772,28.772,0,0,0,870.814,419.72Z" transform="translate(-526.56 -284.114)"/><path class="x" d="M806.541,263.309s-4.329,1.445-10.466-4.152c0,0-13.736-13.537-14.622-16.785l-10.635-18.61s-4.511,4.874-6.319,4.152l11.911,20.755s2.167,3.988,4.152,5.051c0,0,14.8,18.951,14.977,22.74s6.669,13.936,6.669,13.936,2.167,16.421-1.626,19.31c0,0,21.114,5.415,25.625,1.8,0,0-1.985-20.383,0-22.558,0,0,6.137-7.218,1.985-15.159,0,0-.886-4.329,1.444-6.5s12.815-18.229,12.815-18.229,2.526-3.611,2.526-5.955c0,0,4.692-15.881,3.988-20.033,0,0-4.152.886-5.415,0,0,0-6.137,18.61-6.859,19.31s-5.76,15.34-12.451,16.966-7.759,2.344-7.759,2.344,12.992,8.122,6.678,11.729S806.541,263.309,806.541,263.309Z" transform="translate(-481.172 -177.078)"/><path class="e" d="M864.859,291.3a34.464,34.464,0,0,1-.261-5.127l-10.107,3.066a13.633,13.633,0,0,1,.634,2.074c1.156.51,2.716,1.715,4.059,1.715A9.2,9.2,0,0,0,864.859,291.3Z" transform="translate(-531.288 -212.212)"/><circle class="w" cx="9.385" cy="9.385" r="9.385" transform="translate(318.328 61.507)"/><path class="e" d="M829.481,246.461c-2.065.16-4.369,1.586-4.254,3.656.062,1.139.842,2.1,1.183,3.19.82,2.637-1.006,5.282-2.61,7.533s-3.1,5.233-1.728,7.617a18.824,18.824,0,0,0,1.267,1.653c1.7,2.291,1.675,5.384,2.428,8.135a14.272,14.272,0,0,0,16.767,10.191,8.921,8.921,0,0,1-1.883-6.035c.1-1.577.611-3.226,0-4.684-.789-1.874-3.1-2.614-4.294-4.254s-1.112-3.913-.536-5.867,1.573-3.766,2.052-5.76a17.3,17.3,0,0,1,.443-1.724c.833-2.366,3.323-3.74,5.76-4.329s5-.625,7.378-1.4,4.692-2.592,4.967-5.087c-2,.8-3.859-1.289-5.791-2.251-3.182-1.577-6.81-.093-10.089.27C836.805,247.732,833.26,246.186,829.481,246.461Z" transform="translate(-512.934 -190.028)"/><path class="t" d="M829.071,245.651c-2.065.159-4.369,1.586-4.254,3.656.062,1.139.842,2.1,1.183,3.19.82,2.636-1.006,5.282-2.61,7.533s-3.1,5.233-1.728,7.617a18.851,18.851,0,0,0,1.267,1.653c1.7,2.291,1.675,5.384,2.428,8.135a14.272,14.272,0,0,0,16.767,10.191,8.924,8.924,0,0,1-1.883-6.035c.1-1.578.611-3.226,0-4.684-.789-1.874-3.1-2.614-4.294-4.254s-1.112-3.913-.536-5.867,1.573-3.766,2.052-5.76a17.37,17.37,0,0,1,.443-1.724c.833-2.366,3.323-3.74,5.76-4.329s5-.625,7.378-1.4,4.693-2.592,4.967-5.087c-2,.8-3.859-1.289-5.791-2.251-3.182-1.577-6.81-.093-10.089.27C836.4,246.918,832.873,245.354,829.071,245.651Z" transform="translate(-512.706 -189.576)"/><path class="e" d="M885.65,326.3s3.757,3.354,4.5,4.834" transform="translate(-548.641 -234.561)"/><path class="e" d="M886.079,371.51a40.414,40.414,0,0,0-6.859.541c-2.167.541-7.4,0-7.4,0" transform="translate(-540.939 -259.738)"/><g class="g" transform="translate(283.323 45.989)"><path d="M888.458,321.939a4.513,4.513,0,0,1-1.3.5,4.962,4.962,0,0,0,3.465-.5c6.318-3.611-6.677-11.729-6.677-11.729H881.78S894.776,318.332,888.458,321.939Z" transform="translate(-829.809 -271.589)"/><path d="M952.311,223.378a1.88,1.88,0,0,0-.044-.328,21.185,21.185,0,0,1-2.247.341,9.958,9.958,0,0,0,2.291-.013Z" transform="translate(-867.812 -223.05)"/><path d="M802.747,315.8c3.788-2.889,1.626-19.31,1.626-19.31s-6.5-10.107-6.678-13.9-14.977-22.74-14.977-22.74c-1.985-1.081-4.152-5.051-4.152-5.051s-12.274-20.033-14.077-20.755L776.4,254.8s2.167,3.988,4.152,5.051c0,0,14.8,18.951,14.977,22.74s6.673,13.909,6.673,13.909,2.167,16.421-1.626,19.31c0,0,12.978,3.328,20.759,3.026C813.537,318.567,802.747,315.8,802.747,315.8Z" transform="translate(-764.49 -229.176)"/><path d="M859.013,314.017l-.106-.137a2.852,2.852,0,0,1-.377.084C858.7,313.986,858.858,314,859.013,314.017Z" transform="translate(-816.861 -273.633)"/></g><g class="g" transform="translate(344.861 45.967)"><path d="M928.567,223l-.111.022c-.19,5.543-4.036,18.566-4.036,18.566,0,2.344-2.526,5.955-2.526,5.955s-10.466,16.062-12.814,18.229-1.445,6.5-1.445,6.5l.022.044c-.071-1.458.106-3.718,1.6-5.1,2.344-2.167,12.815-18.229,12.815-18.229s2.526-3.611,2.526-5.955C924.6,243.055,929.289,227.174,928.567,223Z" transform="translate(-905.65 -223)"/><path d="M903.37,355.658c.27,1.533.089-.089.182,1.445,0,0,4.431-5.2,3.221-11.623A15.8,15.8,0,0,1,903.37,355.658Z" transform="translate(-903.37 -291.209)"/></g><ellipse class="b" cx="189.501" cy="18.203" rx="189.501" ry="18.203" transform="translate(18.672 256.706)"/><path class="y" d="M425.918,610.1s-6.452-21.911,1.21-38.036a34.607,34.607,0,0,0,2.8-21.712,58.2,58.2,0,0,0-3.075-10.191" transform="translate(-291.202 -353.659)"/><path class="a" d="M429.731,510.6c0,2.685-4.874,10.47-4.874,10.47s-4.874-7.785-4.874-10.47a4.874,4.874,0,1,1,9.722,0Z" transform="translate(-289.304 -334.284)"/><path class="a" d="M447.83,540.932c-1.458,2.255-9.77,6.146-9.77,6.146s.151-9.177,1.608-11.432a4.874,4.874,0,1,1,8.162,5.286Z" transform="translate(-299.378 -349.743)"/><path class="a" d="M444.841,596.321c-2.4,1.21-11.521.372-11.521.372s4.763-7.847,7.161-9.057a4.874,4.874,0,1,1,4.378,8.68Z" transform="translate(-296.738 -379.711)"/><path class="a" d="M434.732,640.649c-2.158,1.6-11.312,2.318-11.312,2.318s3.368-8.539,5.53-10.138a4.874,4.874,0,0,1,5.76,7.816Z" transform="translate(-291.225 -404.871)"/><path class="a" d="M412.818,554.977c1.927,1.87,10.9,3.811,10.9,3.811S421.5,549.876,419.593,548a4.874,4.874,0,1,0-6.775,6.974Z" transform="translate(-284.354 -357.119)"/><path class="a" d="M400.556,605.193c2.4,1.21,11.521.372,11.521.372s-4.746-7.847-7.143-9.035a4.874,4.874,0,0,0-4.378,8.68Z" transform="translate(-277.175 -384.844)"/><path class="a" d="M396.213,656.043c2.158,1.6,11.312,2.317,11.312,2.317s-3.367-8.539-5.53-10.138a4.874,4.874,0,1,0-5.76,7.816Z" transform="translate(-274.781 -413.158)"/><path class="b" d="M429.731,510.6c0,2.685-4.874,10.47-4.874,10.47s-4.874-7.785-4.874-10.47a4.874,4.874,0,1,1,9.722,0Z" transform="translate(-289.304 -334.284)"/><path class="b" d="M447.83,540.932c-1.458,2.255-9.77,6.146-9.77,6.146s.151-9.177,1.608-11.432a4.874,4.874,0,1,1,8.162,5.286Z" transform="translate(-299.378 -349.743)"/><path class="b" d="M444.841,596.321c-2.4,1.21-11.521.372-11.521.372s4.763-7.847,7.161-9.057a4.874,4.874,0,1,1,4.378,8.68Z" transform="translate(-296.738 -379.711)"/><path class="b" d="M434.732,640.649c-2.158,1.6-11.312,2.318-11.312,2.318s3.368-8.539,5.53-10.138a4.874,4.874,0,0,1,5.76,7.816Z" transform="translate(-291.225 -404.871)"/><path class="b" d="M412.818,554.977c1.927,1.87,10.9,3.811,10.9,3.811S421.5,549.876,419.593,548a4.874,4.874,0,1,0-6.775,6.974Z" transform="translate(-284.354 -357.119)"/><path class="b" d="M400.556,605.193c2.4,1.21,11.521.372,11.521.372s-4.746-7.847-7.143-9.035a4.874,4.874,0,0,0-4.378,8.68Z" transform="translate(-277.175 -384.844)"/><path class="b" d="M396.213,656.043c2.158,1.6,11.312,2.317,11.312,2.317s-3.367-8.539-5.53-10.138a4.874,4.874,0,1,0-5.76,7.816Z" transform="translate(-274.781 -413.158)"/><path class="y" d="M720.558,610.809s-6.452-21.911,1.209-38.036a34.6,34.6,0,0,0,2.8-21.712,58.2,58.2,0,0,0-3.075-10.191" transform="translate(-455.287 -354.055)"/><path class="a" d="M724.368,512.206c0,2.685-4.874,10.47-4.874,10.47s-4.874-7.785-4.874-10.47a4.874,4.874,0,0,1,9.722,0Z" transform="translate(-453.394 -335.578)"/><path class="a" d="M742.48,541.632c-1.458,2.255-9.77,6.146-9.77,6.146s.151-9.177,1.608-11.432a4.874,4.874,0,1,1,8.162,5.286Z" transform="translate(-463.469 -350.133)"/><path class="a" d="M739.521,597.01c-2.4,1.21-11.521.372-11.521.372s4.763-7.847,7.161-9.057a4.874,4.874,0,1,1,4.36,8.685Z" transform="translate(-460.846 -380.09)"/><path class="a" d="M729.372,641.35c-2.158,1.6-11.312,2.317-11.312,2.317s3.368-8.539,5.53-10.138a4.874,4.874,0,0,1,5.76,7.816Z" transform="translate(-455.31 -405.261)"/><path class="a" d="M707.478,555.676c1.927,1.87,10.9,3.811,10.9,3.811s-2.215-8.911-4.125-10.785a4.874,4.874,0,1,0-6.775,6.974Z" transform="translate(-448.45 -357.509)"/><path class="a" d="M695.174,605.865c2.4,1.21,11.521.372,11.521.372s-4.763-7.848-7.161-9.057a4.874,4.874,0,0,0-4.378,8.681Z" transform="translate(-441.237 -385.206)"/><path class="a" d="M691.74,657.389c2.158,1.6,11.312,2.318,11.312,2.318s-3.368-8.539-5.53-10.138a4.874,4.874,0,0,0-5.76,7.816Z" transform="translate(-439.749 -414.194)"/><path class="b" d="M724.368,512.206c0,2.685-4.874,10.47-4.874,10.47s-4.874-7.785-4.874-10.47a4.874,4.874,0,0,1,9.722,0Z" transform="translate(-453.394 -335.578)"/><path class="b" d="M742.48,541.632c-1.458,2.255-9.77,6.146-9.77,6.146s.151-9.177,1.608-11.432a4.874,4.874,0,1,1,8.162,5.286Z" transform="translate(-463.469 -350.133)"/><path class="b" d="M739.521,597.01c-2.4,1.21-11.521.372-11.521.372s4.763-7.847,7.161-9.057a4.874,4.874,0,1,1,4.36,8.685Z" transform="translate(-460.846 -380.09)"/><path class="b" d="M729.372,641.35c-2.158,1.6-11.312,2.317-11.312,2.317s3.368-8.539,5.53-10.138a4.874,4.874,0,0,1,5.76,7.816Z" transform="translate(-455.31 -405.261)"/><path class="b" d="M707.478,555.676c1.927,1.87,10.9,3.811,10.9,3.811s-2.215-8.911-4.125-10.785a4.874,4.874,0,1,0-6.775,6.974Z" transform="translate(-448.45 -357.509)"/><path class="b" d="M695.174,605.865c2.4,1.21,11.521.372,11.521.372s-4.763-7.848-7.161-9.057a4.874,4.874,0,0,0-4.378,8.681Z" transform="translate(-441.237 -385.206)"/><path class="b" d="M691.74,657.389c2.158,1.6,11.312,2.318,11.312,2.318s-3.368-8.539-5.53-10.138a4.874,4.874,0,0,0-5.76,7.816Z" transform="translate(-439.749 -414.194)"/><path class="z" d="M759.18,129.652H756.4a1.95,1.95,0,1,0,0-3.895H733.835a1.95,1.95,0,0,0,0,3.895h2.783a1.95,1.95,0,0,0,0,3.895h-3.9a1.95,1.95,0,1,0,0,3.895h22.545a1.95,1.95,0,1,0,0-3.895h3.913a1.95,1.95,0,0,0,0-3.895Z" transform="translate(-462.338 -122.877)"/><path class="z" d="M473.524,156.462h-2.118a1.484,1.484,0,1,0,0-2.964H454.249a1.484,1.484,0,0,0,0,2.964h2.118a1.484,1.484,0,1,0,0,2.964H453.4a1.484,1.484,0,1,0,0,2.964h17.157a1.484,1.484,0,1,0,0-2.964h2.964a1.484,1.484,0,0,0,0-2.964Z" transform="translate(-307.051 -138.326)"/><path class="aa" d="M174.233,634s7.754,15.221,1.436,23.546.576,31.017.576,31.017" transform="translate(-151.768 -405.919)"/><path class="a" d="M175.587,616.577a8.969,8.969,0,0,1-2.153,5.317,7.641,7.641,0,0,1,0-10.634A8.968,8.968,0,0,1,175.587,616.577Z" transform="translate(-150.809 -393.255)"/><path class="aa" d="M179.93,634s-7.754,15.221-1.436,23.546-.576,31.017-.576,31.017" transform="translate(-153.446 -405.919)"/><path class="a" d="M179.67,616.577a8.969,8.969,0,0,0,2.153,5.317,7.641,7.641,0,0,0,0-10.634A8.968,8.968,0,0,0,179.67,616.577Z" transform="translate(-155.481 -393.255)"/><path class="e" d="M179.67,616.577a8.969,8.969,0,0,0,2.153,5.317,7.641,7.641,0,0,0,0-10.634A8.968,8.968,0,0,0,179.67,616.577Z" transform="translate(-155.481 -393.255)"/><path class="aa" d="M190.453,634s7.754,15.221,1.436,23.546.576,31.017.576,31.017" transform="translate(-160.801 -405.919)"/><path class="a" d="M191.757,616.577a8.969,8.969,0,0,1-2.153,5.317,7.641,7.641,0,0,1,0-10.634A8.968,8.968,0,0,1,191.757,616.577Z" transform="translate(-159.814 -393.255)"/><path class="a" d="M187.857,644.1a8.952,8.952,0,0,1-5.237,2.335,7.629,7.629,0,0,1,7.369-7.652A9.047,9.047,0,0,1,187.857,644.1Z" transform="translate(-157.124 -408.581)"/><path class="a" d="M188.317,667.8a8.953,8.953,0,0,1-5.237,2.335,7.629,7.629,0,0,1,7.369-7.652A8.947,8.947,0,0,1,188.317,667.8Z" transform="translate(-157.38 -421.779)"/><path class="a" d="M163.579,684.241a8.948,8.948,0,0,1,1.857,5.424,7.632,7.632,0,0,1-6.966-8.025A8.949,8.949,0,0,1,163.579,684.241Z" transform="translate(-143.674 -432.449)"/><path class="a" d="M166.939,635.481a8.951,8.951,0,0,1,3.239,4.732,7.628,7.628,0,0,1-8.858-5.871A8.86,8.86,0,0,1,166.939,635.481Z" transform="translate(-145.262 -406.071)"/><path class="e" d="M166.939,635.481a8.951,8.951,0,0,1,3.239,4.732,7.628,7.628,0,0,1-8.858-5.871A8.86,8.86,0,0,1,166.939,635.481Z" transform="translate(-145.262 -406.071)"/><path class="aa" d="M196.13,634s-7.754,15.221-1.436,23.546-.576,31.017-.576,31.017" transform="translate(-162.467 -405.919)"/><path class="a" d="M195.87,616.577a8.969,8.969,0,0,0,2.153,5.317,7.641,7.641,0,0,0,0-10.634A8.968,8.968,0,0,0,195.87,616.577Z" transform="translate(-164.503 -393.255)"/><path class="e" d="M195.87,616.577a8.969,8.969,0,0,0,2.153,5.317,7.641,7.641,0,0,0,0-10.634A8.968,8.968,0,0,0,195.87,616.577Z" transform="translate(-164.503 -393.255)"/><path class="a" d="M194.486,648.433a9.074,9.074,0,0,0-2.216,5.317,8.939,8.939,0,0,0,5.264-2.273,9.074,9.074,0,0,0,2.216-5.317A8.941,8.941,0,0,0,194.486,648.433Z" transform="translate(-162.498 -412.69)"/><path class="e" d="M194.486,648.433a9.074,9.074,0,0,0-2.216,5.317,8.939,8.939,0,0,0,5.264-2.273,9.074,9.074,0,0,0,2.216-5.317A8.941,8.941,0,0,0,194.486,648.433Z" transform="translate(-162.498 -412.69)"/><path class="a" d="M203.6,681.243a9.074,9.074,0,0,0-2.215,5.317,8.942,8.942,0,0,0,5.264-2.273,9.075,9.075,0,0,0,2.216-5.317A8.911,8.911,0,0,0,203.6,681.243Z" transform="translate(-167.571 -430.962)"/><path class="aa" d="M193,667.423s4.666-7.356,11.219-7.533" transform="translate(-162.904 -420.337)"/><path class="aa" d="M170.669,657.393S166,650.037,159.45,649.86" transform="translate(-144.22 -414.751)"/><path class="aa" d="M183.4,681.093s4.666-7.355,11.219-7.533" transform="translate(-157.558 -427.949)"/><circle class="a" cx="1.21" cy="1.21" r="1.21" transform="translate(39.879 238.304)"/><circle class="a" cx="1.21" cy="1.21" r="1.21" transform="translate(14.135 233.961)"/><path class="aa" d="M177.049,686.533s-4.666-7.355-11.219-7.533" transform="translate(-147.773 -430.979)"/><circle class="a" cx="1.21" cy="1.21" r="1.21" transform="translate(16.962 246.882)"/><circle class="a" cx="1.21" cy="1.21" r="1.21" transform="translate(35.94 244.463)"/><path class="ab" d="M193.879,723.263s-11.246-2.251-14.25-5.251-16.492-8.246-17.994-4.5-20.245,16.5-7.5,18.748,29.993,3,33.742,1.5S193.879,723.263,193.879,723.263Z" transform="translate(-138.802 -449.476)"/><path class="ac" d="M154.144,744.653c12.748,2.251,29.993,3,33.742,1.5,2.854-1.143,4.839-6.646,5.623-9.181l.377.08s-2.251,9-6,10.5-20.994.749-33.742-1.5c-3.678-.651-4.732-2.176-4.333-4.1C150.121,743.187,151.405,744.17,154.144,744.653Z" transform="translate(-138.808 -463.263)"/><path class="a" d="M1007.091,641.78s3.713,4.874-1.715,12.185-9.9,13.519-8.091,18.092c0,0,8.188-13.616,14.853-13.807S1014.424,649.964,1007.091,641.78Z" transform="translate(-610.583 -410.251)"/><path class="e" d="M1007.355,641.78a6.018,6.018,0,0,1,.758,1.524c6.5,7.639,9.965,14.768,3.717,14.95-5.822.168-12.806,10.577-14.48,13.209a5.6,5.6,0,0,0,.2.6s8.189-13.616,14.853-13.807S1014.688,649.964,1007.355,641.78Z" transform="translate(-610.846 -410.251)"/><path class="ad" d="M1034.4,654.375c0,1.71-.19,3.1-.443,3.1s-.443-1.387-.443-3.1.239-.886.474-.886S1034.4,652.669,1034.4,654.375Z" transform="translate(-630.984 -416.66)"/><path class="ad" d="M1037.18,658.879c-1.5.82-2.809,1.329-2.92,1.1s1.01-1.041,2.512-1.857.908-.221,1.024,0S1038.678,658.06,1037.18,658.879Z" transform="translate(-631.398 -419.122)"/><path class="a" d="M965.2,641.78s-3.713,4.874,1.715,12.185,9.9,13.519,8.091,18.092c0,0-8.189-13.616-14.853-13.807S957.863,649.964,965.2,641.78Z" transform="translate(-588.299 -410.251)"/><path class="e" d="M965.2,641.78a6.018,6.018,0,0,0-.758,1.524c-6.5,7.639-9.965,14.768-3.718,14.95,5.823.168,12.806,10.577,14.481,13.209a5.764,5.764,0,0,1-.2.6s-8.189-13.616-14.853-13.807S957.863,649.964,965.2,641.78Z" transform="translate(-588.299 -410.251)"/><path class="ad" d="M960.09,654.375c0,1.71.19,3.1.443,3.1s.443-1.387.443-3.1-.24-.886-.474-.886S960.09,652.669,960.09,654.375Z" transform="translate(-590.096 -416.66)"/><path class="ad" d="M953.589,658.879c1.5.82,2.809,1.329,2.92,1.1s-1.01-1.041-2.512-1.857-.908-.221-1.024,0S952.087,658.06,953.589,658.879Z" transform="translate(-585.966 -419.122)"/><path class="ab" d="M962.76,701.622s10.382-.319,13.51-2.548,15.952-4.874,16.745-1.329,15.6,17.773,3.882,17.866-27.233-1.826-30.357-3.726S962.76,701.622,962.76,701.622Z" transform="translate(-591.583 -440.454)"/><path class="ac" d="M997.1,721.42c-11.72.093-27.233-1.826-30.357-3.726-2.379-1.449-3.328-6.647-3.642-9.044h-.346s.656,8.375,3.78,10.276,18.637,3.824,30.357,3.726c3.385-.027,4.551-1.232,4.489-3.013C1000.915,720.724,999.644,721.4,997.1,721.42Z" transform="translate(-591.583 -447.491)"/><path class="z" d="M267.376,188.982h-2.783a1.95,1.95,0,1,0,0-3.895H242.049a1.95,1.95,0,0,0,0,3.895h2.783a1.95,1.95,0,0,0,0,3.895h-3.895a1.95,1.95,0,0,0,0,3.895h22.545a1.95,1.95,0,1,0,0-3.895h3.895a1.95,1.95,0,0,0,0-3.895Z" transform="translate(-188.566 -155.918)"/></g></svg>