<svg xmlns="http://www.w3.org/2000/svg" width="14" height="18.2" viewBox="0 0 14 18.2"><defs><style>.a{fill:#044566;opacity:0.5;}</style></defs><path class="a" d="M19,9.675H17.95V7.632a4.2,4.2,0,1,0-8.4-.057v2.1H8.5a1.755,1.755,0,0,0-1.75,1.75v8.4a1.755,1.755,0,0,0,1.75,1.75H19a1.755,1.755,0,0,0,1.75-1.75v-8.4A1.755,1.755,0,0,0,19,9.675Zm-4.637,5.46v3.01a.627.627,0,0,1-.582.63.613.613,0,0,1-.643-.613V15.135a1.4,1.4,0,1,1,1.225,0Zm2.363-5.46h-5.95v-2.1a2.975,2.975,0,0,1,5.95,0Z" transform="translate(-6.75 -3.374)"/></svg>