<svg xmlns="http://www.w3.org/2000/svg" width="155.262" height="57.444" viewBox="0 0 155.262 57.444"><defs><style>.a,.d,.e,.f{fill:#044566;}.b{fill:#00ffa2;}.b,.c{fill-rule:evenodd;}.c{fill:#fff;}.d{font-size:28px;}.d,.e,.f{font-family:VisbyRoundCF-Bold, Visby Round CF;font-weight:700;}.e{font-size:29px;}.f{font-size:26px;}</style></defs><path class="a" d="M15.753,0H41.691A15.753,15.753,0,0,1,57.444,15.753V41.691A15.753,15.753,0,0,1,41.691,57.444H15.753A15.753,15.753,0,0,1,0,41.691V15.753A15.753,15.753,0,0,1,15.753,0Z"/><g transform="translate(12.495 16.613)"><path class="b" d="M186.382,121.828a1.671,1.671,0,0,0-.2-.018Z" transform="translate(-173.094 -121.687)"/><path class="c" d="M270.786,166.514a7.951,7.951,0,0,0,.466-6.654h0a9.718,9.718,0,0,0-3.145-4.34,3.225,3.225,0,0,1-.128,1.1,3.121,3.121,0,0,1-1.532,1.895,3.728,3.728,0,0,1-2.334.39l-1.162-.174c.423.426.86.861,1.3,1.3,2.273,2.255,4.617,4.516,5.931,5.732a3.17,3.17,0,0,1,.6.75Z" transform="translate(-239.316 -150.765)"/><g transform="translate(0 10.986)"><path class="c" d="M108.636,200.87a1.687,1.687,0,0,0-.392,1.581h0a1.64,1.64,0,0,0,1.726,1.209A9.026,9.026,0,0,1,108.636,200.87Z" transform="translate(-105.817 -200.87)"/><path class="c" d="M163.742,279.16l-.389.148a1.75,1.75,0,0,0-1.008,2.252h0a1.751,1.751,0,0,0,2.252,1.009l1.667-.635-2.521-2.773Z" transform="translate(-152.435 -268.403)"/><path class="c" d="M125.329,253.54l-2.686.922a1.683,1.683,0,0,0-1.132,2.146l.022.058a1.768,1.768,0,0,0,2.2,1.11l4.136-1.44Z" transform="translate(-117.224 -246.303)"/><path class="c" d="M95.809,227.621l-3.656,1.246a1.728,1.728,0,0,0-1.11,2.2h0a1.774,1.774,0,0,0,2.2,1.11l5.136-1.75-.008-.011,0,0-.012-.018c-.069-.063-.126-.122-.176-.176l-2.37-2.608Z" transform="translate(-90.939 -223.945)"/></g><path class="b" d="M135.538,136.286h0a.288.288,0,0,0-.019-.023.325.325,0,1,0-.481.437l.021.022h0l11.121,11.39a1.628,1.628,0,0,1,0,2.323h0a1.671,1.671,0,0,1-2.323,0l-11.22-11.49a.433.433,0,0,0-.033-.041.426.426,0,1,0-.631.573.218.218,0,0,0,.032.03l0,0,9.271,9.535a1.584,1.584,0,0,1,.038,2.285l-.043.038a1.665,1.665,0,0,1-2.323,0l-9.322-9.667-.011-.012a.264.264,0,0,0-.365-.025s-.048.044-.051.045a.264.264,0,0,0-.018.374l.016.016,6.29,6.919a1.649,1.649,0,0,1-.11,2.321h0a1.649,1.649,0,0,1-2.321-.11l-7.511-8.263a1.664,1.664,0,0,1-.176-.232,1.394,1.394,0,0,1-.2-.183l-2.4-2.641a7.514,7.514,0,0,1,.5-10.585h0a9.349,9.349,0,0,1,3.561-2.079,3.012,3.012,0,0,0-.084.341,2.863,2.863,0,0,0,.469,2.187,3.61,3.61,0,0,0,1.8,1.331c2.951,1.022,5.872,2.013,8.81,2.992,2.742,2.81,6.7,6.662,8.664,8.475a1.592,1.592,0,0,1,.1,2.222h0a1.532,1.532,0,0,1-2.2.1l-8.846-8.6Zm8.333-4.836a1.622,1.622,0,0,1-.06.32h0a1.609,1.609,0,0,1-1.342,1.124l-6.1-2-6.514-2.256a.99.99,0,0,1-.5-.342.329.329,0,0,1-.056-.253.457.457,0,0,1,.194-.293.47.47,0,0,1,.352-.076c1.513.28,3.273.719,5.063,1.165,1.63.405,3.285.819,4.989,1.158a12.456,12.456,0,0,1,3.978,1.447Z" transform="translate(-116.714 -126.371)"/><path class="c" d="M192.971,128.524c-1.709-3.09-4.533-4.6-7.81-5.25-3.31-.661-7.04-1.767-10.072-2.33a1.77,1.77,0,0,0-2.057,1.412h0a1.88,1.88,0,0,0,1.412,2.057l13.884,4.593Z" transform="translate(-161.728 -120.914)"/></g><g transform="translate(68.499 4.206)"><g transform="translate(0 0)"><text class="d" transform="translate(0 29.794)"><tspan x="0" y="0">k</tspan></text><text class="d" transform="translate(15.058 29.794)"><tspan x="0" y="0">o</tspan></text><text class="e" transform="translate(32.044 28.794)"><tspan x="0" y="0">w</tspan></text><text class="f" transform="translate(57.432 29.794)"><tspan x="0" y="0">f</tspan></text><text class="d" transform="translate(68.763 29.794)"><tspan x="0" y="0">a</tspan></text></g><path class="a" d="M-61.246-.812h-5.2v-9.233h5.2v1.19h-3.8v2.638h3.569v1.177h-3.569v3.026h3.8Zm3.892-3.556L-59.72-7.782h1.565L-56.5-5.273l1.655-2.509h1.552l-2.366,3.414,2.483,3.556h-1.552L-56.5-3.476-58.284-.812h-1.552Zm8.431,3.685a3.186,3.186,0,0,1-2.328-.86,3.65,3.65,0,0,1-.879-2.709A4.455,4.455,0,0,1-51.7-6.347,2.714,2.714,0,0,1-50.525-7.53a3.712,3.712,0,0,1,1.707-.381,4.91,4.91,0,0,1,1.093.116,3.8,3.8,0,0,1,.847.284L-47.293-6.4q-.362-.129-.763-.239a2.93,2.93,0,0,0-.776-.11q-1.888,0-1.888,2.483a2.985,2.985,0,0,0,.466,1.81,1.606,1.606,0,0,0,1.371.621,3.719,3.719,0,0,0,1.022-.129,3.957,3.957,0,0,0,.828-.336v1.19a2.926,2.926,0,0,1-.815.323A4.762,4.762,0,0,1-48.922-.683Zm5.354-9.957v2.625q0,.323-.026.647t-.052.53h.091a2.11,2.11,0,0,1,.9-.8A2.83,2.83,0,0,1-41.435-7.9a2.663,2.663,0,0,1,1.882.608,2.54,2.54,0,0,1,.653,1.94V-.812h-1.358V-5.157q0-1.629-1.435-1.629a1.6,1.6,0,0,0-1.474.647,3.467,3.467,0,0,0-.4,1.823v3.5h-1.371V-10.64Zm9.931,2.729a2.889,2.889,0,0,1,1.959.575,2.284,2.284,0,0,1,.653,1.8v4.72h-.97l-.272-.97h-.052a3.115,3.115,0,0,1-.95.834,2.962,2.962,0,0,1-1.377.265,2.381,2.381,0,0,1-1.565-.511,1.95,1.95,0,0,1-.621-1.6,1.836,1.836,0,0,1,.808-1.623,4.7,4.7,0,0,1,2.463-.6l1.19-.039v-.388a1.406,1.406,0,0,0-.349-1.08,1.411,1.411,0,0,0-.983-.317,3.372,3.372,0,0,0-1.022.155,6.942,6.942,0,0,0-.944.375l-.44-1a5.58,5.58,0,0,1,1.132-.433A5.064,5.064,0,0,1-33.637-7.911Zm1.254,3.75-.931.026a3.07,3.07,0,0,0-1.649.4,1.137,1.137,0,0,0-.459.957.927.927,0,0,0,.323.789,1.352,1.352,0,0,0,.841.246A2,2,0,0,0-32.919-2.2a1.676,1.676,0,0,0,.537-1.358Zm7.449-3.75a2.618,2.618,0,0,1,1.862.608,2.574,2.574,0,0,1,.647,1.953V-.812h-1.358V-5.157q0-1.629-1.435-1.629a1.61,1.61,0,0,0-1.468.634,3.381,3.381,0,0,0-.407,1.823V-.812h-1.371v-6.97h1.086l.194.931h.078a2.017,2.017,0,0,1,.925-.8A3.067,3.067,0,0,1-24.934-7.911Zm7.474,0a2.792,2.792,0,0,1,1.216.259,2.36,2.36,0,0,1,.918.789h.065l.155-.918h1.112V-.722q0,3.013-3.22,3.013a8.608,8.608,0,0,1-1.384-.1,5.231,5.231,0,0,1-1.164-.323V.662a4.865,4.865,0,0,0,1.209.407,7.08,7.08,0,0,0,1.416.136A1.747,1.747,0,0,0-15.824.72a1.874,1.874,0,0,0,.472-1.364V-.877q0-.168.013-.44t.026-.414h-.052a2.222,2.222,0,0,1-.886.8,2.756,2.756,0,0,1-1.209.252,2.472,2.472,0,0,1-2.063-.95,4.2,4.2,0,0,1-.744-2.644,4.286,4.286,0,0,1,.744-2.657A2.447,2.447,0,0,1-17.46-7.911Zm.284,1.138a1.415,1.415,0,0,0-1.248.64,3.336,3.336,0,0,0-.433,1.869,3.275,3.275,0,0,0,.433,1.849,1.444,1.444,0,0,0,1.274.634,1.745,1.745,0,0,0,1.4-.524A2.634,2.634,0,0,0-15.3-4.019v-.259a3.151,3.151,0,0,0-.453-1.92A1.7,1.7,0,0,0-17.175-6.773Zm8.522-1.138a2.807,2.807,0,0,1,2.16.847,3.253,3.253,0,0,1,.789,2.308v.75h-4.681a2.393,2.393,0,0,0,.563,1.642,1.971,1.971,0,0,0,1.507.569,5.262,5.262,0,0,0,1.2-.123,6.158,6.158,0,0,0,1.08-.369v1.138A4.873,4.873,0,0,1-7.1-.793a6.329,6.329,0,0,1-1.267.11,3.833,3.833,0,0,1-1.785-.4,2.848,2.848,0,0,1-1.209-1.19A4.043,4.043,0,0,1-11.8-4.239,4.543,4.543,0,0,1-11.4-6.23a2.91,2.91,0,0,1,1.1-1.248A3.085,3.085,0,0,1-8.653-7.911Zm0,1.06a1.541,1.541,0,0,0-1.183.478,2.216,2.216,0,0,0-.524,1.358h3.285A2.219,2.219,0,0,0-7.47-6.34,1.38,1.38,0,0,0-8.653-6.851Z" transform="translate(91.215 47.985)"/></g></svg>